<?xml version="1.0" encoding="UTF-8"?>
<svg width="309px" height="258px" viewBox="0 0 309 258" version="1.1" xmlns="http://www.w3.org/2000/svg" xmlns:xlink="http://www.w3.org/1999/xlink">
    <!-- Generator: Sketch 54.1 (76490) - https://sketchapp.com -->
    <title>schedule</title>
    <desc>Created with Sketch.</desc>
    <defs>
        <linearGradient x1="50.0008763%" y1="99.9984906%" x2="50.0008763%" y2="2.14493754e-15%" id="linearGradient-1">
            <stop stop-color="#808080" stop-opacity="0.25" offset="0%"></stop>
            <stop stop-color="#808080" stop-opacity="0.12" offset="54%"></stop>
            <stop stop-color="#808080" stop-opacity="0.1" offset="100%"></stop>
        </linearGradient>
        <linearGradient x1="50.0174946%" y1="100.001816%" x2="50.0174946%" y2="-0.00112839836%" id="linearGradient-2">
            <stop stop-color="#808080" stop-opacity="0.25" offset="0%"></stop>
            <stop stop-color="#808080" stop-opacity="0.12" offset="54%"></stop>
            <stop stop-color="#808080" stop-opacity="0.1" offset="100%"></stop>
        </linearGradient>
    </defs>
    <g id="schedule" stroke="none" stroke-width="1" fill="none" fill-rule="evenodd">
        <g id="undraw_events_2p66-(1)">
            <path d="M288.589486,142.553814 C276.72123,161.883369 278.945128,188.216666 284.157689,208.97983 C285.901609,215.932027 287.911117,223.270814 286.419985,231.05096 C284.596069,240.564323 277.946774,248.035196 271.217482,252.313471 C258.949244,260.093617 244.940286,259.87777 234.739153,251.743249 C225.929957,244.716956 220.128623,232.462018 211.133835,225.812651 C196.094524,214.682049 175.44267,221.428064 157.510692,231.830586 C144.829673,239.172595 130.871912,248.515213 119.150849,243.225359 C110.904827,239.510862 105.762662,229.031022 103.362772,217.626584 C102.204426,212.120883 101.503658,206.10617 98.8477793,201.911656 C97.2670517,199.418143 95.0943513,197.749359 92.8416545,196.380182 C72.2825964,183.899732 44.4662709,194.33447 24.6399793,180.201344 C11.2485928,170.658987 3.6361416,150.949284 1.13385625,129.873626 C-1.3684291,108.797968 0.689076629,86.2468199 3.26495861,64.0436042 C5.0984746,48.2578009 7.57836098,31.3702129 15.8083839,18.5321667 C24.515185,4.95315428 38.2393562,-1.11954761 50.1684096,0.169089393 C62.0974631,1.4577264 72.4553885,9.06712793 81.3829795,18.3678655 C92.5408683,29.9913713 102.604407,44.8364697 117.045346,48.5864033 C126.881695,51.1411262 137.623603,48.1837043 148.083923,46.5116978 C165.548723,43.7153555 182.770334,44.517532 199.870351,45.5677712 C216.240801,46.572908 232.710446,47.8228859 247.964147,53.6217525 C258.757253,57.7292829 267.041673,66.2793895 277.114812,71.8398581 C283.680911,75.4641497 291.088571,75.9248375 297.206691,80.7572262 C304.742346,86.7107292 311.263647,97.6995813 308.246185,111.591088 C305.369517,124.806061 294.886797,132.296263 288.589486,142.553814 Z" id="Shape" fill="#00A7B5" fill-rule="nonzero" opacity="0.1"></path>
            <path d="M212,98 C212,98 244.41075,70.9825868 251.618131,57.3605495 C258.825511,43.7385121 268,32 268,32" id="Shape" stroke="#535461" stroke-width="2"></path>
            <path d="M263,62.3188774 L249,59 C249,59 252.303731,74.5262814 263,62.3188774 Z" id="Shape" fill="#00A7B5" fill-rule="nonzero"></path>
            <path d="M243.081213,48 L251,59.9756004 C251,59.9756004 235.518362,61.1047739 243.081213,48 Z" id="Shape" fill="#00A7B5" fill-rule="nonzero"></path>
            <path d="M269,51.1833256 L257,49 C257,49 264.53719,60.8991247 269,51.1833256 Z" id="Shape" fill="#00A7B5" fill-rule="nonzero"></path>
            <path d="M249.300578,41 L256,49.9606781 C256,49.9606781 244.140627,51.1085911 249.300578,41 Z" id="Shape" fill="#00A7B5" fill-rule="nonzero"></path>
            <path d="M263,39 C263,39 273.473857,39.531108 274.706075,40.5966026 C275.938294,41.6620971 273.144238,47.9075344 269.161092,46.887938 C265.177946,45.8683417 263,39 263,39 Z" id="Shape" fill="#00A7B5" fill-rule="nonzero"></path>
            <path d="M259.374562,30 C259.374562,30 264.174783,37.272655 263.995077,38.6576489 C263.815371,40.0426429 256.678973,41.5971693 255.23787,36.3589038 C253.796767,31.1206383 259.374562,30 259.374562,30 Z" id="Shape" fill="#00A7B5" fill-rule="nonzero"></path>
            <ellipse id="Oval" fill="#FFD037" fill-rule="nonzero" transform="translate(269.980601, 34.610491) rotate(-72.474432) translate(-269.980601, -34.610491) " cx="269.980601" cy="34.6104906" rx="3.04377364" ry="3.03068515"></ellipse>
            <ellipse id="Oval" fill="#FFD037" fill-rule="nonzero" transform="translate(265.238428, 31.476644) rotate(-72.474432) translate(-265.238428, -31.476644) " cx="265.238428" cy="31.4766442" rx="3.04377364" ry="3.03068515"></ellipse>
            <path d="M111.695853,206.105024 C111.695853,206.105024 116.983744,190.495673 83.4622344,171.678344 C83.4622344,171.678344 49.4253105,161.827814 52.9059888,128 C52.9059888,128 13.6692512,156.525426 40.2196176,192.862001 C66.7699841,229.198577 89.6863527,221.267654 89.6863527,221.267654 L111.695853,206.105024 Z" id="Shape" fill="#00A7B5" fill-rule="nonzero"></path>
            <path d="M102,212 C102,212 85.6605107,194.696115 69.9988462,188.006386 C66.8702433,186.626562 63.9954155,184.750381 61.4901891,182.453433 C51.5053077,173.512507 47.1515866,160.021288 49.7260175,147.009047 L53.4899007,128" id="Shape" stroke="#535461" stroke-width="2"></path>
            <polygon id="Rectangle-path" fill="url(#linearGradient-1)" fill-rule="nonzero" points="61 11 245 11 245 224 61 224"></polygon>
            <polygon id="Rectangle-path" fill="#F7F7FD" fill-rule="nonzero" points="64 13 242 13 242 222 64 222"></polygon>
            <rect id="Rectangle-path" fill="#E2E2EC" fill-rule="nonzero" x="74" y="37" width="46" height="3"></rect>
            <rect id="Rectangle-path" fill="#E2E2EC" fill-rule="nonzero" x="74" y="45" width="77" height="3"></rect>
            <polygon id="Rectangle-path" fill="#FFFFFF" fill-rule="nonzero" points="202 33 233 33 233 60 202 60"></polygon>
            <path d="M233.683168,32.3208066 L233.683168,59.6791934 L202.316832,59.6791934 L202.316832,32.3208066 L233.683168,32.3208066 L233.683168,32.3208066 Z M234,32 L202,32 L202,60 L234,60 L234,32 Z" id="Shape" fill="#E2E2EC" fill-rule="nonzero"></path>
            <polygon id="Rectangle-path" fill="#FFFFFF" fill-rule="nonzero" points="169 33 200 33 200 60 169 60"></polygon>
            <path d="M200.683168,32.3208066 L200.683168,59.6791934 L169.316832,59.6791934 L169.316832,32.3208066 L200.683168,32.3208066 L200.683168,32.3208066 Z M201,32 L169,32 L169,60 L201,60 L201,32 Z" id="Shape" fill="#E2E2EC" fill-rule="nonzero"></path>
            <polygon id="Rectangle-path" fill="#FFFFFF" fill-rule="nonzero" points="202 61 233 61 233 88 202 88"></polygon>
            <path d="M233.683168,61.3208066 L233.683168,88.6791934 L202.316832,88.6791934 L202.316832,61.3208066 L233.683168,61.3208066 L233.683168,61.3208066 Z M234,61 L202,61 L202,89 L234,89 L234,61 Z" id="Shape" fill="#E2E2EC" fill-rule="nonzero"></path>
            <polygon id="Rectangle-path" fill="#FFFFFF" fill-rule="nonzero" points="169 61 200 61 200 88 169 88"></polygon>
            <path d="M200.683168,61.3208066 L200.683168,88.6791934 L169.316832,88.6791934 L169.316832,61.3208066 L200.683168,61.3208066 L200.683168,61.3208066 Z M201,61 L169,61 L169,89 L201,89 L201,61 Z" id="Shape" fill="#E2E2EC" fill-rule="nonzero"></path>
            <polygon id="Rectangle-path" fill="#FFFFFF" fill-rule="nonzero" points="137 61 168 61 168 88 137 88"></polygon>
            <path d="M168.683168,61.3208066 L168.683168,88.6791934 L137.316832,88.6791934 L137.316832,61.3208066 L168.683168,61.3208066 L168.683168,61.3208066 Z M169,61 L137,61 L137,89 L169,89 L169,61 Z" id="Shape" fill="#E2E2EC" fill-rule="nonzero"></path>
            <polygon id="Rectangle-path" fill="#FFFFFF" fill-rule="nonzero" points="105 61 136 61 136 88 105 88"></polygon>
            <path d="M135.683168,61.3208066 L135.683168,88.6791934 L104.316832,88.6791934 L104.316832,61.3208066 L135.683168,61.3208066 L135.683168,61.3208066 Z M136,61 L104,61 L104,89 L136,89 L136,61 Z" id="Shape" fill="#E2E2EC" fill-rule="nonzero"></path>
            <polygon id="Rectangle-path" fill="#FFFFFF" fill-rule="nonzero" points="73 61 104 61 104 88 73 88"></polygon>
            <path d="M103.683168,61.3208066 L103.683168,88.6791934 L72.3168317,88.6791934 L72.3168317,61.3208066 L103.683168,61.3208066 L103.683168,61.3208066 Z M104,61 L72,61 L72,89 L104,89 L104,61 Z" id="Shape" fill="#E2E2EC" fill-rule="nonzero"></path>
            <polygon id="Rectangle-path" fill="#FFFFFF" fill-rule="nonzero" points="202 89 233 89 233 116 202 116"></polygon>
            <path d="M233.683168,88.3208066 L233.683168,115.679193 L202.316832,115.679193 L202.316832,88.3208066 L233.683168,88.3208066 L233.683168,88.3208066 Z M234,88 L202,88 L202,116 L234,116 L234,88 Z" id="Shape" fill="#E2E2EC" fill-rule="nonzero"></path>
            <polygon id="Rectangle-path" fill="#FFFFFF" fill-rule="nonzero" points="169 89 200 89 200 116 169 116"></polygon>
            <path d="M200.683168,88.3208066 L200.683168,115.679193 L169.316832,115.679193 L169.316832,88.3208066 L200.683168,88.3208066 L200.683168,88.3208066 Z M201,88 L169,88 L169,116 L201,116 L201,88 Z" id="Shape" fill="#E2E2EC" fill-rule="nonzero"></path>
            <polygon id="Rectangle-path" fill="#FFFFFF" fill-rule="nonzero" points="137 89 168 89 168 116 137 116"></polygon>
            <path d="M168.683168,88.3208066 L168.683168,115.679193 L137.316832,115.679193 L137.316832,88.3208066 L168.683168,88.3208066 L168.683168,88.3208066 Z M169,88 L137,88 L137,116 L169,116 L169,88 Z" id="Shape" fill="#E2E2EC" fill-rule="nonzero"></path>
            <polygon id="Rectangle-path" fill="#FFFFFF" fill-rule="nonzero" points="105 89 136 89 136 116 105 116"></polygon>
            <path d="M135.683168,88.3208066 L135.683168,115.679193 L104.316832,115.679193 L104.316832,88.3208066 L135.683168,88.3208066 L135.683168,88.3208066 Z M136,88 L104,88 L104,116 L136,116 L136,88 Z" id="Shape" fill="#E2E2EC" fill-rule="nonzero"></path>
            <polygon id="Rectangle-path" fill="#FFFFFF" fill-rule="nonzero" points="73 89 104 89 104 116 73 116"></polygon>
            <path d="M103.683168,88.3208066 L103.683168,115.679193 L72.3168317,115.679193 L72.3168317,88.3208066 L103.683168,88.3208066 L103.683168,88.3208066 Z M104,88 L72,88 L72,116 L104,116 L104,88 Z" id="Shape" fill="#E2E2EC" fill-rule="nonzero"></path>
            <polygon id="Rectangle-path" fill="#FFFFFF" fill-rule="nonzero" points="202 118 233 118 233 145 202 145"></polygon>
            <path d="M233.683168,117.320807 L233.683168,144.679193 L202.316832,144.679193 L202.316832,117.320807 L233.683168,117.320807 L233.683168,117.320807 Z M234,117 L202,117 L202,145 L234,145 L234,117 Z" id="Shape" fill="#E2E2EC" fill-rule="nonzero"></path>
            <polygon id="Rectangle-path" fill="#FFFFFF" fill-rule="nonzero" points="169 118 200 118 200 145 169 145"></polygon>
            <path d="M200.683168,117.320807 L200.683168,144.679193 L169.316832,144.679193 L169.316832,117.320807 L200.683168,117.320807 L200.683168,117.320807 Z M201,117 L169,117 L169,145 L201,145 L201,117 Z" id="Shape" fill="#E2E2EC" fill-rule="nonzero"></path>
            <polygon id="Rectangle-path" fill="#FFFFFF" fill-rule="nonzero" points="137 118 168 118 168 145 137 145"></polygon>
            <path d="M168.683168,117.320807 L168.683168,144.679193 L137.316832,144.679193 L137.316832,117.320807 L168.683168,117.320807 L168.683168,117.320807 Z M169,117 L137,117 L137,145 L169,145 L169,117 Z" id="Shape" fill="#E2E2EC" fill-rule="nonzero"></path>
            <polygon id="Rectangle-path" fill="#FFFFFF" fill-rule="nonzero" points="105 118 136 118 136 145 105 145"></polygon>
            <path d="M135.683168,117.320807 L135.683168,144.679193 L104.316832,144.679193 L104.316832,117.320807 L135.683168,117.320807 L135.683168,117.320807 Z M136,117 L104,117 L104,145 L136,145 L136,117 Z" id="Shape" fill="#E2E2EC" fill-rule="nonzero"></path>
            <polygon id="Rectangle-path" fill="#FFFFFF" fill-rule="nonzero" points="73 118 104 118 104 145 73 145"></polygon>
            <path d="M103.683168,117.320807 L103.683168,144.679193 L72.3168317,144.679193 L72.3168317,117.320807 L103.683168,117.320807 L103.683168,117.320807 Z M104,117 L72,117 L72,145 L104,145 L104,117 Z" id="Shape" fill="#E2E2EC" fill-rule="nonzero"></path>
            <polygon id="Rectangle-path" fill="#FFFFFF" fill-rule="nonzero" points="202 146 233 146 233 173 202 173"></polygon>
            <path d="M233.683168,145.320843 L233.683168,172.679157 L202.316832,172.679157 L202.316832,145.320843 L233.683168,145.320843 L233.683168,145.320843 Z M234,145 L202,145 L202,173 L234,173 L234,145 Z" id="Shape" fill="#E2E2EC" fill-rule="nonzero"></path>
            <polygon id="Rectangle-path" fill="#FFFFFF" fill-rule="nonzero" points="169 146 200 146 200 173 169 173"></polygon>
            <path d="M200.683168,145.320843 L200.683168,172.679157 L169.316832,172.679157 L169.316832,145.320843 L200.683168,145.320843 L200.683168,145.320843 Z M201,145 L169,145 L169,173 L201,173 L201,145 Z" id="Shape" fill="#E2E2EC" fill-rule="nonzero"></path>
            <polygon id="Rectangle-path" fill="#FFFFFF" fill-rule="nonzero" points="137 146 168 146 168 173 137 173"></polygon>
            <path d="M168.683168,145.320843 L168.683168,172.679157 L137.316832,172.679157 L137.316832,145.320843 L168.683168,145.320843 L168.683168,145.320843 Z M169,145 L137,145 L137,173 L169,173 L169,145 Z" id="Shape" fill="#E2E2EC" fill-rule="nonzero"></path>
            <polygon id="Rectangle-path" fill="#FFFFFF" fill-rule="nonzero" points="105 146 136 146 136 173 105 173"></polygon>
            <path d="M135.683168,145.320843 L135.683168,172.679157 L104.316832,172.679157 L104.316832,145.320843 L135.683168,145.320843 L135.683168,145.320843 Z M136,145 L104,145 L104,173 L136,173 L136,145 Z" id="Shape" fill="#E2E2EC" fill-rule="nonzero"></path>
            <polygon id="Rectangle-path" fill="#FFFFFF" fill-rule="nonzero" points="73 146 104 146 104 173 73 173"></polygon>
            <path d="M103.683168,145.320843 L103.683168,172.679157 L72.3168317,172.679157 L72.3168317,145.320843 L103.683168,145.320843 L103.683168,145.320843 Z M104,145 L72,145 L72,173 L104,173 L104,145 Z" id="Shape" fill="#E2E2EC" fill-rule="nonzero"></path>
            <polygon id="Rectangle-path" fill="#FFFFFF" fill-rule="nonzero" points="202 175 233 175 233 202 202 202"></polygon>
            <path d="M233.683168,174.320807 L233.683168,201.679193 L202.316832,201.679193 L202.316832,174.320807 L233.683168,174.320807 L233.683168,174.320807 Z M234,174 L202,174 L202,202 L234,202 L234,174 Z" id="Shape" fill="#E2E2EC" fill-rule="nonzero"></path>
            <polygon id="Rectangle-path" fill="#FFFFFF" fill-rule="nonzero" points="169 175 200 175 200 202 169 202"></polygon>
            <path d="M200.683168,174.320807 L200.683168,201.679193 L169.316832,201.679193 L169.316832,174.320807 L200.683168,174.320807 L200.683168,174.320807 Z M201,174 L169,174 L169,202 L201,202 L201,174 Z" id="Shape" fill="#E2E2EC" fill-rule="nonzero"></path>
            <polygon id="Rectangle-path" fill="#FFFFFF" fill-rule="nonzero" points="137 175 168 175 168 202 137 202"></polygon>
            <path d="M168.683168,174.320807 L168.683168,201.679193 L137.316832,201.679193 L137.316832,174.320807 L168.683168,174.320807 L168.683168,174.320807 Z M169,174 L137,174 L137,202 L169,202 L169,174 Z" id="Shape" fill="#E2E2EC" fill-rule="nonzero"></path>
            <polygon id="Rectangle-path" fill="#FFFFFF" fill-rule="nonzero" points="105 175 136 175 136 202 105 202"></polygon>
            <path d="M135.683168,174.320807 L135.683168,201.679193 L104.316832,201.679193 L104.316832,174.320807 L135.683168,174.320807 L135.683168,174.320807 Z M136,174 L104,174 L104,202 L136,202 L136,174 Z" id="Shape" fill="#E2E2EC" fill-rule="nonzero"></path>
            <polygon id="Rectangle-path" fill="#FFFFFF" fill-rule="nonzero" points="73 175 104 175 104 202 73 202"></polygon>
            <path d="M103.683168,174.320807 L103.683168,201.679193 L72.3168317,201.679193 L72.3168317,174.320807 L103.683168,174.320807 L103.683168,174.320807 Z M104,174 L72,174 L72,202 L104,202 L104,174 Z" id="Shape" fill="#E2E2EC" fill-rule="nonzero"></path>
            <path d="M139.88214,226.477915 C140.801007,225.832523 141.665256,225.071138 141.931921,224.143201 C142.216183,223.123255 141.585671,222.076304 140.499002,221.763876 C139.184958,221.383184 137.780955,222.061291 136.714298,222.766167 C135.647642,223.471042 134.429982,224.253245 133.035618,224.107512 C134.478175,223.14091 135.165718,221.57353 134.767328,220.148908 C134.699027,219.841962 134.53085,219.56173 134.285405,219.345886 C133.556095,218.751055 132.232412,219.009806 131.358525,219.473775 C128.579434,220.960853 127.805144,223.801173 127.78908,226.367871 C127.509564,225.442908 127.7441,224.479281 127.737675,223.527551 C127.731249,222.575821 127.387477,221.525943 126.327246,221.014388 C125.648743,220.74206 124.913884,220.611083 124.174656,220.630722 C122.924868,220.595032 121.533716,220.690205 120.682319,221.380209 C119.622087,222.236767 119.89839,223.676259 120.82047,224.619067 C121.74255,225.561874 123.146553,226.153732 124.434894,226.805072 C125.418018,227.301756 126.413992,227.881717 127.005151,228.666894 C127.082664,228.770906 127.147324,228.88264 127.197921,229 L135.027567,229 C136.752243,228.348467 138.382898,227.501296 139.88214,226.477915 L139.88214,226.477915 Z" id="Shape" fill="#00A7B5" fill-rule="nonzero"></path>
            <path d="M236.074089,150.103135 C238.056299,151.291178 241.148547,152.063888 245.065395,149.510724 L245.027336,155.16439 C245.306432,159.027943 250.02885,173.165328 250.02885,173.165328 L253.358963,184.788184 C255.745105,192.999217 256.977251,201.511143 257.018916,210.071921 C257.018916,212.908413 257.278982,215.831835 258.081381,218.030841 C259.85427,222.895698 257.383643,229.164313 256.311664,231.498543 C254.507229,232.117289 252.67273,232.641704 250.815391,233.069722 C250.648317,233.108712 250.484071,233.159271 250.323802,233.221044 L250.301602,233.188848 C250.301602,233.188848 245.30326,235.201115 243.083185,234.924227 C241.427642,234.718171 240.39055,236.814149 241.687708,238.35635 C240.463495,238.678313 239.207567,238.906907 238.360767,238.800659 C236.140691,238.523771 235.027482,242.400203 239.194881,243.507755 C243.36228,244.615307 266.974369,243.507755 266.974369,243.507755 C268.340409,242.813957 269.070965,241.269768 268.75043,239.753669 C270.564549,239.682837 271.696787,239.628103 271.696787,239.628103 C271.696787,239.628103 275.864186,237.696327 271.696787,232.425796 L271.47478,232.596436 L270.583578,229.933804 L270.583578,226.33748 C270.583578,226.33748 275.861015,200.580458 274.195958,197.534691 C272.530901,194.488923 271.696787,178.979976 271.696787,178.979976 L272.261321,162.086589 C273.767801,158.931354 274.538484,153.986006 274.928583,150.119233 C275.495389,148.27449 275.852915,146.370096 275.994219,144.44303 C276.060822,143.535094 276.114738,142.582085 276.149625,141.593659 C276.163675,139.425603 275.81404,137.270941 275.115704,135.222016 C276.701472,132.903884 279.279931,129.320438 281.408032,127.201923 C284.741317,123.879267 283.907203,119.999616 283.907203,119.999616 L282.51807,110.582205 L279.184785,94.5194821 C279.603428,90.0635174 278.686854,87.4974741 277.675134,86.0486416 C277.916171,84.609468 278.14135,83.1702944 278.309441,81.7246816 C279.04828,75.4382222 278.718947,69.0696708 277.335779,62.8962987 C276.853706,60.7423678 276.197198,58.5337032 274.709747,56.9013519 C273.025661,55.0532856 270.291797,53.9264159 269.663832,51.5052559 C269.508427,50.9031855 269.502084,50.2624796 269.276905,49.6829466 C268.66797,48.0988897 266.739676,47.5225764 265.052418,47.3165202 C262.045802,46.946263 257.697625,46.6725947 254.808355,47.8638569 C252.791258,48.7009601 250.012992,51.0062136 248.909297,53.4788876 C248.27499,54.6154162 247.980037,55.8098981 248.249618,56.9335482 C248.355943,57.3475679 248.517042,57.745052 248.72852,58.1151516 C248.298087,59.2994596 248.078998,60.5521598 248.081526,61.8145038 C248.102046,66.2551426 250.796817,70.2308786 254.874957,71.8372049 C254.94156,72.0497003 255.001819,72.2589761 255.052564,72.4650323 C255.17878,72.9611329 255.26993,73.465752 255.325316,73.9750377 C255.2714,74.940926 255.21114,75.935791 255.166739,76.9177774 C255.135023,77.0530018 255.101194,77.1860797 255.06525,77.3170113 C252.676169,78.3907937 250.34688,79.5967444 248.087869,80.9294336 C249.756097,83.4214254 247.808774,93.9463884 247.808774,93.9463884 C243.641375,96.4383803 239.473976,102.810024 243.92047,109.455335 C248.366964,116.100647 245.864622,123.299734 245.864622,123.299734 L245.170056,134.127342 L245.170056,134.127342 L245.170056,134.14666 L245.030508,136.31347 L245.084424,136.31347 L245.030508,137.134475 L245.151026,137.157012 L245.151026,138.03919 C243.200531,138.766826 240.34932,140.234976 238.649376,142.949122 C237.845523,144.284273 236.867193,145.502714 235.741077,146.571203 C235.216148,147.032323 234.943629,147.722913 235.00977,148.424407 C235.075911,149.125901 235.472525,149.751473 236.074089,150.103135 Z M269.616259,121.332542 C269.449042,119.459315 269.790152,117.575358 270.602607,115.884932 C271.255944,115.89781 271.910337,115.905323 272.565788,115.907469 C272.632391,116.374315 272.711679,116.818624 272.806825,117.224297 C273.371359,119.664775 271.116396,120.833499 269.613088,121.329322 L269.616259,121.332542 Z" id="Shape" fill="url(#linearGradient-2)" fill-rule="nonzero"></path>
            <path d="M270.943574,229.033664 L272,232.102373 L268.551724,235.441225 L257.191223,238 L249,237.232064 L249.529781,234.418322 L249.529781,234.418322 C249.848824,233.185032 250.853075,232.227879 252.131661,231.938466 C255.498433,231.173565 261.918495,229.425221 263.266458,227 L270.943574,229.033664 Z" id="Shape" fill="#DB8B8B" fill-rule="nonzero"></path>
            <path d="M270.943574,229.033664 L272,232.102373 L268.551724,235.441225 L257.191223,238 L249,237.232064 L249.529781,234.418322 L249.529781,234.418322 C249.848824,233.185032 250.853075,232.227879 252.131661,231.938466 C255.498433,231.173565 261.918495,229.425221 263.266458,227 L270.943574,229.033664 Z" id="Shape" fill="#000000" fill-rule="nonzero" opacity="0.1"></path>
            <path d="M251.791634,236.763147 L253.385194,234.457888 L251.791634,231.786661 C251.791634,231.786661 247.014102,233.879863 244.891455,233.592561 C242.768807,233.305259 241.707483,237.354853 245.688235,238.493801 C249.668986,239.632749 272.230777,238.493801 272.230777,238.493801 C272.230777,238.493801 276.211529,236.475844 272.230777,231 L268.766516,233.883283 C268.766516,233.883283 262.92766,237.341171 260.008232,236.766567 L251.791634,236.763147 Z" id="Shape" fill="#2E3037" fill-rule="nonzero"></path>
            <path d="M244,241.232699 L252.191223,242 L263.551724,239.443342 L267,236.107251 L266.721003,235.294458 L266.326019,234.154122 L265.931034,233.044114 L258.269592,231 C257.878168,231.618076 257.341054,232.137715 256.702194,232.516405 C254.213166,234.16322 249.742947,235.352082 247.119122,235.946512 C247.012787,235.971784 246.908107,236.003179 246.805643,236.040529 C245.676426,236.407574 244.818496,237.306189 244.529781,238.424318 L244,241.232699 Z" id="Shape" fill="#DB8B8B" fill-rule="nonzero"></path>
            <path d="M244,241.084577 L252.191223,242 L263.551724,238.949796 L267,234.969697 L266.721003,234 L263.567398,236.800543 C263.567398,236.800543 257.755486,240.458616 254.84953,239.850746 L246.642633,239.850746 L248.22884,237.412031 L246.805643,234.87924 C245.676426,235.31714 244.818496,236.389227 244.529781,237.723202 L244,241.084577 Z" id="Shape" fill="#000000" fill-rule="nonzero" opacity="0.1"></path>
            <path d="M247.791634,239.763147 L249.385194,237.457888 L247.791634,234.786661 C247.791634,234.786661 243.014102,236.879863 240.891455,236.592561 C238.768807,236.305259 237.707483,240.354853 241.688235,241.493801 C245.668986,242.632749 268.230777,241.493801 268.230777,241.493801 C268.230777,241.493801 272.211529,239.475844 268.230777,234 L264.766516,236.883283 C264.766516,236.883283 258.92766,240.341171 256.008232,239.766567 L247.791634,239.763147 Z" id="Shape" fill="#2E3037" fill-rule="nonzero"></path>
            <path d="M253,81.8549948 C253,81.8549948 266,83.1610747 264.104301,77.9336528 C263.574212,76.451234 263.436153,74.8644213 263.702669,73.3173894 C264.03988,71.3993614 264.825567,69.5808138 266,68 L253.812902,69.8303733 C254.543133,71.0094313 255.099019,72.2812916 255.464409,73.6090082 C256.916708,79.1528675 253,81.8549948 253,81.8549948 Z" id="Shape" fill="#DB8B8B" fill-rule="nonzero"></path>
            <path d="M276,145 C276,145 275.725322,156.673179 272.968731,162.374483 L272.416105,178.934034 C272.416105,178.934034 273.243409,194.137512 274.898018,197.12345 C276.552626,200.109387 271.301042,225.35618 271.301042,225.35618 L271.301042,229.701411 C271.301042,229.701411 262.472103,232.957919 260,229.157049 L262.481913,196.849658 L261.379931,152.057377 L276,145 Z" id="Shape" fill="#474463" fill-rule="nonzero"></path>
            <path d="M276,145 C276,145 275.725322,156.673179 272.968731,162.374483 L272.416105,178.934034 C272.416105,178.934034 273.243409,194.137512 274.898018,197.12345 C276.552626,200.109387 271.301042,225.35618 271.301042,225.35618 L271.301042,229.701411 C271.301042,229.701411 262.472103,232.957919 260,229.157049 L262.481913,196.849658 L261.379931,152.057377 L276,145 Z" id="Shape" fill="#000000" fill-rule="nonzero" opacity="0.1"></path>
            <path d="M280.988935,107 L282.588724,111.390907 L283.919774,120.719551 C284.284669,123.35613 283.391028,126.01192 281.52009,127.851113 C278.323673,131.141852 274.058622,138 274.058622,138 L269,122.376312 C269,122.376312 274.058622,121.552814 273.265051,117.985405 C272.47148,114.417997 272.727572,107.810479 272.727572,107.810479 L280.988935,107 Z" id="Shape" fill="#FC6681" fill-rule="nonzero"></path>
            <path d="M280.988935,107 L282.588724,111.390907 L283.919774,120.719551 C284.284669,123.35613 283.391028,126.01192 281.52009,127.851113 C278.323673,131.141852 274.058622,138 274.058622,138 L269,122.376312 C269,122.376312 274.058622,121.552814 273.265051,117.985405 C272.47148,114.417997 272.727572,107.810479 272.727572,107.810479 L280.988935,107 Z" id="Shape" fill="#000000" fill-rule="nonzero" opacity="0.05"></path>
            <path d="M258,232.015891 C261.530372,238.856241 267.02678,234.981384 268,234.208827 L267.601568,232.711997 L259.619856,230 C259.216178,230.819648 258.66118,231.510336 258,232.015891 L258,232.015891 Z" id="Shape" fill="#000000" fill-rule="nonzero" opacity="0.1"></path>
            <path d="M246,154.983614 C246.266933,158.764003 250.820684,172.533591 250.820684,172.533591 L254.033414,183.865148 C256.33557,191.877418 257.523738,200.173007 257.563921,208.514568 C257.563921,211.279378 257.814965,214.130689 258.590342,216.273977 C260.732162,222.213674 256.448522,230.315881 256.448522,230.315881 C260.198296,237.066119 266.617401,232.475188 266.617401,232.475188 L266.617401,228.156574 C266.617401,228.156574 271.70184,204.663697 270.367175,200.07597 C269.032509,195.488243 268.492288,183.064218 268.492288,183.064218 L268.492288,160.638179 C272.782565,156.328318 275.391525,150.606107 275.84248,144.517061 C275.906036,143.632834 275.95688,142.703756 275.991835,141.739436 C276.207924,135.652368 272.076817,128.504869 270.462508,125.961116 C270.074819,125.346002 269.826953,125 269.826953,125 L246.177955,134.457381 L246.123933,134.479807 L246.123933,135.402478 L246.123933,137.443248 L246,154.983614 Z" id="Shape" fill="#474463" fill-rule="nonzero"></path>
            <path d="M254,70.0394702 C254.719021,71.3554512 255.266372,72.7750114 255.626153,74.2569145 C258.259504,75.350399 261.184816,75.2330213 263.737938,73.9314303 C264.070433,71.7918724 264.844038,69.7633752 266,68 L254,70.0394702 Z" id="Shape" fill="#000000" fill-rule="nonzero" opacity="0.1"></path>
            <circle id="Oval" fill="#DB8B8B" fill-rule="nonzero" cx="260.5" cy="64.5" r="10.5"></circle>
            <path d="M246,136.692372 L246.116898,136.713483 C257.592357,138.905991 272,127.795674 272,127.795674 C271.613919,127.191078 271.280562,126.55875 271.003122,125.904749 C270.606969,125.32571 270.353691,125 270.353691,125 L246.188335,133.90273 L246.126639,134.792399 L246,136.692372 Z" id="Shape" fill="#000000" fill-rule="nonzero" opacity="0.1"></path>
            <path d="M249.84659,82.3508793 C249.84659,82.3508793 264.819712,73.1160483 269.632048,76.9182467 L276.316024,85.6181921 C276.316024,85.6181921 280.595418,86.9747391 279.805523,95.665018 L283,111.411919 L273.375328,113.857571 C273.375328,113.857571 267.760407,119.290203 272.306273,127.165265 C272.306273,127.165265 258.135736,139.11319 246.905894,136.670761 L247.708479,123.907619 C247.708479,123.907619 250.116233,116.847774 245.836839,110.329259 C241.557445,103.810745 245.570368,97.5661172 249.580119,95.1204658 C249.580119,95.1172436 251.448587,84.7965306 249.84659,82.3508793 Z" id="Shape" fill="#FC6681" fill-rule="nonzero"></path>
            <path d="M248.167544,139 C248.167544,139 242.369646,140.045979 239.608274,144.232996 C238.811529,145.488902 237.839737,146.637301 236.719152,147.647169 C236.208047,148.086436 235.945145,148.728149 236.009593,149.37912 C236.074041,150.030091 236.45831,150.614279 237.046717,150.955814 C239.238126,152.197331 242.811858,152.970176 247.325702,149.456681 C255.069336,143.447736 248.167544,139 248.167544,139 Z" id="Shape" fill="#DB8B8B" fill-rule="nonzero"></path>
            <path d="M256.296617,87.2051008 C256.296617,87.2051008 261.775155,86.6573141 263.143164,100.864113 C264.511174,115.070913 266.717536,118.347909 266.717536,118.347909 C266.717536,118.347909 268.085546,125.725202 264.800373,130.09453 C261.5152,134.463858 255.214557,143.753543 255.214557,143.753543 C255.214557,143.753543 248.36801,145.665934 247,138.836428 L255.490758,122.992751 C255.490758,122.992751 256.858768,117.52785 253.573595,113.703067 C250.288422,109.878284 247.805858,84.47265 256.296617,87.2051008 Z" id="Shape" fill="#000000" fill-rule="nonzero" opacity="0.1"></path>
            <path d="M256.296617,86.2051008 C256.296617,86.2051008 261.775155,85.6573141 263.143164,99.8641135 C264.511174,114.070913 266.717536,117.347909 266.717536,117.347909 C266.717536,117.347909 268.085546,124.725202 264.800373,129.09453 C261.5152,133.463858 255.214557,142.753543 255.214557,142.753543 C255.214557,142.753543 248.36801,144.665934 247,137.836428 L255.490758,121.992751 C255.490758,121.992751 256.858768,116.52785 253.573595,112.703067 C250.288422,108.878284 247.815607,83.47265 256.296617,86.2051008 Z" id="Shape" fill="#FC6681" fill-rule="nonzero"></path>
            <path d="M252.054283,97 C252.054283,97 251.480919,105.443566 254.061056,110.089145 C256.641193,114.734723 256.651431,120.722861 254.061056,124" id="Shape" fill="#000000" fill-rule="nonzero" opacity="0.1"></path>
            <path d="M250,87 C250,87 252.249166,84.1779484 258.719689,83.8220516 C265.190211,83.4661549 268,81 268,81" id="Shape" fill="#000000" fill-rule="nonzero" opacity="0.1"></path>
            <path d="M264.589203,50.3123795 C266.277203,50.5152977 268.215766,51.0821804 268.815797,52.6314448 C269.039984,53.2015483 269.046578,53.8296285 269.201531,54.4190576 C269.831234,56.7896577 272.564344,57.8944346 274.249047,59.7078148 C275.735938,61.3182768 276.392016,63.4730749 276.886547,65.5827801 C278.273902,71.6325817 278.608267,77.8674751 277.875609,84.0257908 C277.334922,88.5350844 276.227172,92.9606339 275.917266,97.4828112 C275.607359,102.004988 276.174422,106.762293 278.703125,110.562983 C279.791094,112.195992 281.228531,113.632524 282,115.4298 C280.407609,116.692402 278.208594,116.872774 276.154641,116.940413 C273.765505,117.019862 271.375271,117.019862 268.983938,116.940413 C267.731125,116.898541 266.422266,116.818018 265.340891,116.1996 C264.54019,115.699309 263.882317,115.008943 263.428703,114.192965 C262.0605,111.938318 261.717625,109.200533 261.780266,106.572259 C261.842906,103.943985 262.264906,101.328594 262.31436,98.6970995 C262.340735,97.2637883 262.225344,95.7402913 261.381344,94.567875 C260.771422,93.720772 259.845,93.1506684 259.05375,92.4646116 C256.086563,89.8878724 255.057938,85.7586479 254.959031,81.8774345 C254.860125,77.9962211 255.516203,74.1085659 255.179922,70.2402362 C255.048047,68.7264019 254.467797,66.9065799 252.944641,66.6134758 C252.463297,66.520069 251.955578,66.6134758 251.494016,66.433104 C250.270875,65.9725119 250.389563,64.2879687 250.040094,63.0543548 C249.647766,61.6693575 248.437813,60.6000107 248.098235,59.189246 C247.297094,55.9039036 251.576438,51.9840391 254.382078,50.8406111 C257.233875,49.6746366 261.582453,49.951636 264.589203,50.3123795 Z" id="Shape" fill="#000000" fill-rule="nonzero" opacity="0.1"></path>
            <rect id="Rectangle" fill="#FC6681" opacity="0.510951451" x="73" y="62" width="30" height="9"></rect>
            <rect id="Rectangle" fill="#00A7B5" opacity="0.510951451" x="105" y="90" width="30" height="9"></rect>
            <rect id="Rectangle-Copy-2" fill="#00A7B5" opacity="0.510951451" x="170" y="145" width="30" height="9"></rect>
            <rect id="Rectangle" fill="#FFD037" opacity="0.510951451" x="138" y="108" width="30" height="9"></rect>
            <rect id="Rectangle-Copy" fill="#FFD037" opacity="0.510951451" x="170" y="118" width="30" height="9"></rect>
            <rect id="Rectangle" fill="#FC6681" opacity="0.510951451" x="105" y="192" width="30" height="9"></rect>
            <rect id="Rectangle-Copy-3" fill="#FC6681" opacity="0.510951451" x="203" y="79" width="30" height="9"></rect>
            <path d="M265.589203,50.3147664 C267.277203,50.5176773 269.215766,51.0845396 269.815797,52.6337486 C270.039984,53.2038318 270.046578,53.8318895 270.201531,54.4212975 C270.831234,56.7918127 273.564344,57.89655 275.249047,59.7098653 C276.735938,61.3202697 277.392016,63.4749907 277.886547,65.5846204 C279.273902,71.6342054 279.608267,77.8688757 278.875609,84.026971 C278.334922,88.5361032 277.227172,92.9614943 276.917266,97.4835097 C276.607359,102.005525 277.174422,106.76266 279.703125,110.563214 C280.791094,112.196164 282.228531,113.632645 283,115.429856 C281.407609,116.692413 279.208594,116.872778 277.154641,116.940415 C274.765505,117.019862 272.375271,117.019862 269.983938,116.940415 C268.731125,116.898545 267.422266,116.818024 266.340891,116.199629 C265.54019,115.699356 264.882317,115.009014 264.428703,114.193065 C263.0605,111.938499 262.717625,109.200812 262.780266,106.572632 C262.842906,103.944452 263.264906,101.329155 263.31436,98.6977546 C263.340735,97.2644947 263.225344,95.7410522 262.381344,94.5686778 C261.771422,93.7216052 260.845,93.151522 260.05375,92.4654898 C257.086563,89.8888428 256.057938,85.7597661 255.959031,81.8786916 C255.860125,77.9976171 256.516203,74.110101 256.179922,70.2419098 C256.048047,68.7281297 255.467797,66.9083728 253.944641,66.6152792 C253.463297,66.5218757 252.955578,66.6152792 252.494016,66.4349139 C251.270875,65.9743382 251.389563,64.2898553 251.040094,63.0562856 C250.647766,61.6713378 249.437813,60.6020293 249.098235,59.1913151 C248.297094,55.9060903 252.576438,51.9863661 255.382078,50.842979 C258.233875,49.6738254 262.582453,49.950815 265.589203,50.3147664 Z" id="Shape" fill="#472727" fill-rule="nonzero"></path>
        </g>
    </g>
</svg>