<?xml version="1.0" encoding="UTF-8"?>
<svg width="335px" height="236px" viewBox="0 0 335 236" version="1.1" xmlns="http://www.w3.org/2000/svg" xmlns:xlink="http://www.w3.org/1999/xlink">
    <!-- Generator: Sketch 54.1 (76490) - https://sketchapp.com -->
    <title>target</title>
    <desc>Created with Sketch.</desc>
    <defs>
        <linearGradient x1="50.0473806%" y1="99.997641%" x2="50.0473806%" y2="-0.0142947503%" id="linearGradient-1">
            <stop stop-color="#808080" stop-opacity="0.25" offset="0%"></stop>
            <stop stop-color="#808080" stop-opacity="0.12" offset="54%"></stop>
            <stop stop-color="#808080" stop-opacity="0.1" offset="100%"></stop>
        </linearGradient>
    </defs>
    <g id="target" stroke="none" stroke-width="1" fill="none" fill-rule="evenodd">
        <g id="undraw_product_tour_foyt">
            <path d="M206.315456,28.6229144 C191.941037,38.7142939 173.296251,38.0629355 156.957587,32.8115537 C140.618924,27.5601719 125.610477,18.2105306 109.691391,11.5660522 C96.4232297,6.0167883 82.4438563,2.36281935 68.1625302,0.711118772 C47.8736211,-1.6169419 25.2164294,1.21911595 11.0813254,17.540473 C-4.66060549,35.7068259 -3.45160033,68.480435 13.5677113,85.1695446 C22.2296583,93.6527858 33.5706861,97.8164927 43.4602861,104.439155 C53.3498861,111.061818 62.5122182,122.053879 61.669955,134.831722 C60.8898514,146.674601 51.8238667,155.749986 42.4408678,161.450151 C35.1899449,165.853832 26.2607114,170.662664 25.3873684,179.784797 C24.5419972,188.610859 32.0508827,195.526477 39.2209981,199.459559 C62.6116736,212.2935 91.4351025,212.168838 114.74497,199.147904 C123.055715,194.488667 130.68892,188.305437 139.406811,184.696476 C162.297101,175.184774 187.521486,184.761923 211.760641,188.261805 C232.356687,191.220563 253.346893,189.688733 273.298693,183.770861 C285.301721,180.214881 297.351369,174.779623 305.783325,164.653961 C311.865646,157.351892 315.654277,148.114446 319.209809,138.98608 C323.001547,129.25622 326.647211,119.456757 330.146799,109.587691 C332.244687,103.666252 334.311495,97.6263833 334.855392,91.2873265 C335.837515,79.8028505 331.697682,68.4492695 326.059802,58.7568081 C312.673722,35.7255252 290.128418,19.5444128 265.712108,15.4336872 C241.295798,11.3229616 215.465356,19.3511869 196.528419,36.9191627" id="Shape" fill="#00A7B5" fill-rule="nonzero" opacity="0.1"></path>
            <g id="Group" opacity="0.1" transform="translate(167.000000, 32.000000)" fill="#000000" fill-rule="nonzero">
                <path d="M1.43629344,0.434482759 L0.259459459,69.0206897 C0.259459459,69.0206897 42.8602317,69.0206897 79.1073359,80.8448276 L79.811583,11.5572414 C79.811583,11.5572414 21.6772201,-2.40517241 1.43629344,0.434482759 Z" id="Shape"></path>
            </g>
            <path d="M167.18346,32.3820503 L166,101.145334 C166,101.145334 208.840613,101.145334 245.291788,113 L246,43.5335259 C246,43.5335259 187.538342,29.5350637 167.18346,32.3820503 Z" id="Shape" fill="#F7F7FD" fill-rule="nonzero"></path>
            <g id="Group" opacity="0.1" transform="translate(68.000000, 34.000000)" fill="#000000" fill-rule="nonzero">
                <path d="M78.5822394,0.536896552 L79.7590734,69.1231034 C79.7590734,69.1231034 37.1583012,69.1231034 0.914285714,80.9472414 L0.206949807,11.6596552 C0.206949807,11.6596552 58.3413127,-2.28724138 78.5822394,0.536896552 Z" id="Shape"></path>
            </g>
            <path d="M147.81654,32.3785231 L149,101.144816 C149,101.144816 106.159387,101.144816 69.7113182,113 L69,43.5304865 C69,43.5304865 127.461658,29.5469699 147.81654,32.3785231 Z" id="Shape" fill="#F7F7FD" fill-rule="nonzero"></path>
            <g id="Group" opacity="0.2" transform="translate(86.000000, 41.000000)" fill="#00A7B5" fill-rule="nonzero">
                <path d="M42.2142446,0.460496454 L42.8484173,36.601844 C42.8484173,36.601844 19.9563309,36.601844 0.498057554,42.8322695 L0.117553957,6.31886525 C0.117553957,6.31886525 31.3435971,-1.0277305 42.2142446,0.460496454 Z" id="Shape"></path>
            </g>
            <g id="Group" opacity="0.1" transform="translate(272.000000, 58.000000)" fill="#000000" fill-rule="nonzero">
                <path d="M0.209932886,0.214712991 L0.209932886,68.266284 C0.209932886,68.266284 14.1025503,66.6045921 43.2616107,102.884864 L45.8487248,34.8332931 C45.8487248,34.8332931 15.5010738,1.87329305 0.209932886,0.214712991 Z" id="Shape"></path>
            </g>
            <path d="M272,57 L272,125.270201 C272,125.270201 286.002571,123.60317 315.39241,160 L318,91.7297994 C318,91.7297994 287.412163,58.6639086 272,57 Z" id="Shape" fill="#F7F7FD" fill-rule="nonzero"></path>
            <g id="Group" opacity="0.1" transform="translate(0.000000, 58.000000)" fill="#000000" fill-rule="nonzero">
                <path d="M45.7931544,0.214712991 L45.7931544,68.266284 C45.7931544,68.266284 31.9128859,66.6045921 2.76,102.884864 L0.157449664,34.8332931 C0.157449664,34.8332931 30.5020134,1.87329305 45.7931544,0.214712991 Z" id="Shape"></path>
            </g>
            <path d="M47,57 L47,125.270201 C47,125.270201 33.0089298,123.60317 3.62332567,160 L1,91.7297994 C1,91.7297994 31.5867948,58.6639086 47,57 Z" id="Shape" fill="#F7F7FD" fill-rule="nonzero"></path>
            <g id="Group" opacity="0.2" transform="translate(176.000000, 42.000000)" fill="#00A7B5" fill-rule="nonzero">
                <polygon id="Shape" points="33.1578947 5.25921434 63 10.6935484 62.1710526 51 0.414473684 41.1290323 2.64116741 0.107996878"></polygon>
            </g>
            <polygon id="Shape" fill="#FFFFFF" fill-rule="nonzero" points="122 87 93 91.9600923 93 96 122 90.6748021"></polygon>
            <polygon id="Shape" fill="#FFFFFF" fill-rule="nonzero" points="234 100.820376 234 105 181 93.7960311 181 90"></polygon>
            <g id="Group" opacity="0.2" transform="translate(281.000000, 78.000000)" fill="#00A7B5" fill-rule="nonzero">
                <polygon id="Shape" points="0.414285714 0 0.414285714 31.2580645 27.3428571 50.5887097 29 19.7419355 4.3021978 2.56262566"></polygon>
            </g>
            <polygon id="Shape" fill="#FFFFFF" fill-rule="nonzero" points="281.412698 114 281 117.259259 307 136 307 131.925926 283.888889 115.222222"></polygon>
            <g id="Group" opacity="0.2" transform="translate(13.000000, 79.000000)" fill="#00A7B5" fill-rule="nonzero">
                <polygon id="Shape" points="19.1831597 34.78125 0 52.5859375 1.23851852 20.2618078 21.6761693 0.286174842"></polygon>
            </g>
            <ellipse id="Oval" fill="#00A7B5" fill-rule="nonzero" opacity="0.1" cx="63" cy="193.5" rx="18" ry="3.5"></ellipse>
            <path d="M22.4070223,176 C22.4070223,176 24.0057639,178.245755 21.6673495,181.630027 C19.328935,185.014298 17.4011264,187.885612 18.1728323,190 C18.1728323,190 21.6993825,183.700626 24.5794471,183.613047 C27.4595117,183.525469 25.5666482,179.803396 22.4070223,176 Z" id="Shape" fill="#00A7B5" fill-rule="nonzero"></path>
            <path d="M22.3593763,176 C22.5010946,176.216088 22.6122392,176.453027 22.6892751,176.703282 C25.5228697,180.23532 27.0339238,183.532931 24.3093136,183.617325 C21.7732169,183.692342 18.7128169,188.509042 18,189.724939 C18.0235642,189.815584 18.0530194,189.909355 18.0854202,190 C18.0854202,190 21.6524504,183.704845 24.5655742,183.617325 C27.478698,183.529806 25.5552705,179.800848 22.3593763,176 Z" id="Shape" fill="#000000" fill-rule="nonzero" opacity="0.1"></path>
            <path d="M25.197333,179.523352 C25.197333,180.339055 25.11032,181 25.0015538,181 C24.8927876,181 24.802667,180.339055 24.802667,179.523352 C24.802667,178.707648 24.9145408,179.091319 25.0233071,179.091319 C25.1320733,179.091319 25.197333,178.704424 25.197333,179.523352 Z" id="Shape" fill="#FFD037" fill-rule="nonzero"></path>
            <path d="M26.5260101,180.503134 C25.7457677,180.855265 25.0639343,181.067708 25.004186,180.980403 C24.9444377,180.893098 25.5313768,180.532236 26.3116192,180.180105 C27.0918616,179.827974 26.7825763,180.084069 26.8423246,180.180105 C26.9020729,180.276141 27.3062526,180.153913 26.5260101,180.503134 Z" id="Shape" fill="#FFD037" fill-rule="nonzero"></path>
            <path d="M11.5953049,176 C11.5953049,176 10.0019888,178.238 12.33225,181.635633 C14.6625113,185.033266 16.5995409,187.887028 15.8276419,190 C15.8276419,190 12.300209,183.704845 9.41942351,183.617325 C6.53863806,183.529806 8.43780096,179.800848 11.5953049,176 Z" id="Shape" fill="#00A7B5" fill-rule="nonzero"></path>
            <path d="M11.6402483,176 C11.4998131,176.216899 11.3887547,176.453635 11.3103212,176.703282 C8.47648258,180.23532 6.96529838,183.532931 9.69014318,183.617325 C12.229404,183.692342 15.2871217,188.509042 16,189.724939 C15.9768653,189.818397 15.9483356,189.910258 15.9145724,190 C15.9145724,190 12.3472351,183.704845 9.43386048,183.617325 C6.52048588,183.529806 8.4470248,179.800848 11.6402483,176 Z" id="Shape" fill="#000000" fill-rule="nonzero" opacity="0.1"></path>
            <path d="M8.80266698,179.523352 C8.80266698,180.339055 8.88967996,181 8.9984462,181 C9.10721243,181 9.19733302,180.339055 9.19733302,179.523352 C9.19733302,178.707648 9.08545918,179.091319 8.97669295,179.091319 C8.86792672,179.091319 8.80266698,178.704424 8.80266698,179.523352 Z" id="Shape" fill="#FFD037" fill-rule="nonzero"></path>
            <path d="M7.4760689,180.503134 C8.257047,180.855265 8.93600544,181.067708 8.99581007,180.980403 C9.0556147,180.893098 8.46812216,180.532236 7.68714407,180.180105 C6.90616597,179.827974 7.21574287,180.084069 7.15593824,180.180105 C7.09613361,180.276141 6.69509081,180.153913 7.4760689,180.503134 Z" id="Shape" fill="#FFD037" fill-rule="nonzero"></path>
            <path d="M9,189.573359 C9,189.573359 13.8371502,189.427616 15.2983727,188.404314 C16.7595951,187.381011 22.7367508,186.162351 23.0989073,187.802736 C23.4610637,189.443121 30.3672293,195.955045 24.9065402,195.998458 C19.4458511,196.041871 12.2184684,195.161211 10.7635444,194.286752 C9.30862026,193.412294 9,189.573359 9,189.573359 Z" id="Shape" fill="#A8A8A8" fill-rule="nonzero"></path>
            <path d="M25.0048165,195.383608 C19.5428303,195.430894 12.3137309,194.471664 10.8584613,193.519189 C9.74968438,192.796389 9.30869357,190.199038 9.16064665,189 L9,189 C9,189 9.31499344,193.18481 10.7608133,194.133907 C12.2066332,195.083004 19.4451823,196.045612 24.9071685,195.998326 C26.4821357,195.998326 27.0302242,195.383608 26.9987249,194.49193 C26.7813794,195.035718 26.179742,195.373476 25.0048165,195.383608 Z" id="Shape" fill="#000000" fill-rule="nonzero" opacity="0.2"></path>
            <ellipse id="Oval" fill="#00A7B5" fill-rule="nonzero" opacity="0.1" cx="186.5" cy="146.5" rx="29.5" ry="5.5"></ellipse>
            <path d="M180.964892,79.9803481 C180.812073,80.3098748 180.700181,80.6572669 180.631769,81.0145985 C180.611782,81.1044357 180.591794,81.1987647 180.571807,81.2975856 C180.371933,82.3284672 180.238684,83.6254913 180.168729,84.3801235 C180.135417,84.7574396 180.11876,85 180.11876,85 C180.11876,85 172.893334,84.5115104 174.145874,83.285233 C174.468805,82.9466915 174.698497,82.5285701 174.812119,82.0724312 C174.848763,81.9410444 174.878744,81.8096575 174.905393,81.6749017 C174.965107,81.3691374 175.004063,81.0595992 175.021986,80.7484559 C175.021986,80.6709714 175.021986,80.5934868 175.021986,80.5126334 C175.038277,80.0073446 175.014885,79.5015452 174.952031,79 C174.952031,79 177.300544,79 179.072756,79.192027 C180.265334,79.3301516 181.194746,79.5693431 180.964892,79.9803481 Z" id="Shape" fill="#D38884" fill-rule="nonzero"></path>
            <path d="M168.869008,110.999231 C166.476843,110.925072 168.241024,106.169655 168.516172,105.530037 C168.791319,104.89042 168.108306,103.32382 168.108306,103.32382 C168.108306,103.32382 167.299048,98.7939686 167.299048,98.4973344 C167.257723,97.8797883 167.16682,97.2661792 167.027138,96.6619101 C166.94293,96.0450245 167.055751,95.4182408 167.350841,94.8635652 C167.625988,94.4526032 167.583907,92.8056653 167.583907,92.8056653 L167.583907,90.6736069 L168.118017,90 L169.480806,91.2359759 L169.859539,91.5758693 L170.526367,93.9613028 L170.290064,97.3787762 L170.16382,100.706641 L170.989262,105.310652 C170.989262,105.310652 171.277358,111.076479 168.869008,110.999231 Z" id="Shape" fill="#D38884" fill-rule="nonzero"></path>
            <polygon id="Shape" fill="#000000" fill-rule="nonzero" opacity="0.1" points="170 91 168 90.0996564 168 89.7491409 168.520635 89 169.860317 90.3676976"></polygon>
            <path d="M168.971429,87 C168.740029,87.6621198 168.572339,88.3520854 168.471429,89.057257 C168.378421,89.7338102 168.220281,90.395999 168,91.0312916 L170,92 L168.971429,87 Z" id="Shape" fill="#4C4981" fill-rule="nonzero"></path>
            <path d="M168.971429,87 C168.740029,87.6621198 168.572339,88.3520854 168.471429,89.057257 C168.378421,89.7338102 168.220281,90.395999 168,91.0312916 L170,92 L168.971429,87 Z" id="Shape" fill="#000000" fill-rule="nonzero" opacity="0.05"></path>
            <path d="M186,135.027951 L185.830974,135.424651 C185.830974,135.424651 185.647377,136.739518 185.647377,136.77151 C185.647377,136.803502 185.116986,137.680081 185.116986,137.680081 L183.785179,138 L183.219817,137.923219 C183.189712,137.561799 183.1391,137.202793 183.068276,136.848291 C183.047877,136.749116 183.027477,136.646742 183.001249,136.544368 C182.802218,135.724215 182.488616,134.942872 182.071607,134.228153 C182.071607,134.228153 181.08368,131.553629 180.731057,131.204917 C180.378435,130.856205 179.034971,127.327496 179.177769,126.476511 C179.253539,126.009429 179.19234,124.441825 179.122398,123.136555 C179.064113,122.071224 179,121.17545 179,121.17545 L182.354288,119 L182.744796,119.675029 L182.977935,120.074928 C182.977935,120.074928 182.977935,120.151709 182.963364,120.279677 L182.963364,120.327665 C182.924808,120.871733 182.826969,121.408764 182.67194,121.92726 C182.67194,121.92726 182.421316,123.904361 182.67194,124.253073 C182.922565,124.601785 183.721066,129.263007 183.898834,131.419263 C183.898834,131.486446 183.898834,131.553629 183.898834,131.614413 C183.968776,132.606163 184.52831,133.48914 185.090758,134.135376 L185.090758,134.135376 C185.125729,134.180165 185.163614,134.221755 185.201499,134.263344 C185.45133,134.53807 185.718131,134.793545 186,135.027951 L186,135.027951 Z" id="Shape" fill="#D38884" fill-rule="nonzero"></path>
            <path d="M184.141199,137.922218 L184.516441,138 L185.400387,137.675908 C185.400387,137.675908 185.752418,136.784654 185.752418,136.755486 C185.752418,136.726317 185.874275,135.391057 185.874275,135.391057 L185.98646,134.989183 L186,134.940569 C185.78389,134.689734 185.580727,134.408949 185.39265,134.10117 L185.39265,134.10117 C185.371373,134.068761 185.350097,134.036352 185.330754,134.000702 C185.311412,133.965052 185.45648,135.297071 184.783366,135.877196 C184.45648,136.159156 184.187621,136.376298 184,136.52538 L184.141199,137.922218 Z" id="Shape" fill="#000000" fill-rule="nonzero" opacity="0.1"></path>
            <path d="M187,134.937551 L186.760589,135.388483 C186.760589,135.388483 186.528545,136.721817 186.528545,136.754258 C186.528545,136.786699 185.858195,137.675588 185.858195,137.675588 L184.174954,138 L183.206262,137.899432 C183.206262,137.727494 183.173112,137.484185 183.12523,137.18897 C183.095764,137.010543 183.055249,136.812652 183,136.59854 C183.368324,136.452555 183.939227,136.21249 184.672192,135.878345 C185.957643,135.297648 185.714549,134 185.714549,134 C185.99264,134.244045 186.286565,134.473682 186.594843,134.687753 C186.771639,134.798054 186.915285,134.885645 187,134.937551 Z" id="Shape" fill="#CEDDF9" fill-rule="nonzero"></path>
            <path d="M186,135.150833 L185.876426,135.423115 C185.876426,135.423115 185.756654,136.228208 185.756654,136.247796 C185.756654,136.267385 185.410646,136.804114 185.410646,136.804114 L184.541825,137 L184.041825,136.939275 C184.041825,136.835455 184.024715,136.688541 184,136.510284 C184.106316,136.515279 184.21196,136.530361 184.315589,136.555338 C184.315589,136.555338 185.501901,136.815867 185.558935,135.848188 C185.593156,135.299706 185.703422,135.084231 185.790875,135 C185.882129,135.066601 185.956274,135.119491 186,135.150833 Z" id="Shape" fill="#000000" fill-rule="nonzero" opacity="0.1"></path>
            <path d="M186.190241,135.038769 C186.190241,135.038769 185.759877,134.937083 185.673805,136.411523 C185.587732,137.885964 183.85795,137.491184 183.85795,137.491184 C183.85795,137.491184 183.00833,137.263887 183,137.643713 C183.02836,137.994937 183.105093,138.339659 183.227676,138.66655 C183.227676,138.66655 183.277654,139.54583 183.438693,139.755183 C183.599732,139.964536 183.497,140.742131 183.497,140.742131 C183.497,140.742131 183.563637,141.322337 184.901928,140.742131 C184.901928,140.742131 186.095838,140.475954 187.087062,138.875902 C187.12038,138.822069 186.970447,138.657577 187.836727,138.322613 C188.703006,137.987649 191.168571,135.84029 190.990872,134.790536 C190.95165,134.4354 190.720369,134.139271 190.402247,134.036867 C190.14031,133.961623 189.861306,134.002555 189.627593,134.150515 C189.393519,134.286955 189.151449,134.406838 188.902917,134.509406 C188.572933,134.65331 188.224763,134.743036 187.870045,134.775582 C187.598036,134.800574 187.329143,134.855695 187.067626,134.940074 C186.788711,135.057298 186.485622,135.091391 186.190241,135.038769 Z" id="Shape" fill="#CC8294" fill-rule="nonzero"></path>
            <path d="M174.896559,124.54829 C174.664618,124.729806 174.464479,124.944845 174.303549,125.185446 C173.710539,126.042421 173.353385,127.240275 172.955799,127.756372 C172.436915,128.425386 172.281924,129.725184 172.281924,129.725184 C172.143779,130.578974 170.229974,135.141013 169.711091,135.950201 C169.192207,136.75939 168.471161,138.960765 168.471161,138.960765 C168.029772,139.483233 168.056727,140.260563 168.100529,140.630114 C168.100529,140.69383 168.100529,140.744802 168.120746,140.779846 C168.140962,140.814889 168.120746,140.840376 168.120746,140.840376 L168.120746,140.862676 L167.413177,142 L165.162434,141.703722 L164,140.958249 C164.095193,140.812058 164.179627,140.659842 164.252703,140.502683 C164.876037,139.190141 165.317426,136.845406 165.317426,136.845406 C165.317426,136.845406 165.944129,134.169349 165.896958,133.544936 C165.912762,132.692964 165.974615,131.842313 166.082274,130.996311 C166.082274,130.996311 167.854565,125.883132 168.42062,125.054829 C168.656544,124.727519 168.802456,124.349766 168.845161,123.955734 C168.856099,123.876426 168.856099,123.79611 168.845161,123.716801 L169.60664,123 C169.60664,123 175.873677,123.812374 174.896559,124.54829 Z" id="Shape" fill="#D38884" fill-rule="nonzero"></path>
            <path d="M169,140.184317 C169,140.184317 169,140.267605 169,140.405031 L169,140.513305 L168.313164,142 L166.128373,141.61271 L165,140.638238 C165.092403,140.447138 165.174363,140.248163 165.245298,140.042727 C165.794767,139.842835 167.050695,140.409195 167.050695,140.409195 C167.050695,140.409195 168.408013,140.738183 168.980376,140.209303 C168.980376,140.205139 168.986917,140.192646 169,140.184317 Z" id="Shape" fill="#000000" fill-rule="nonzero" opacity="0.1"></path>
            <path d="M168.979488,143.403019 L166.904032,144 L165,142.304868 L165.097957,141.350435 C165.230866,141.252422 165.348887,141.127793 165.446927,140.981928 C165.585865,140.785515 165.680711,140.549547 165.72243,140.296504 C165.832631,139.592656 167.641768,140.362836 167.641768,140.362836 C167.641768,140.362836 168.964182,140.665011 169.478454,140.160157 C169.442341,140.622917 169.47552,141.089724 169.576411,141.538373 C169.625437,141.756985 169.733044,141.949998 169.882525,142.087449 C170.412103,142.525972 168.979488,143.403019 168.979488,143.403019 Z" id="Shape" fill="#CEDDF9" fill-rule="nonzero"></path>
            <path d="M168.979488,142.604396 L166.904032,143 L165,141.876679 L165.097957,141.2442 C165.230866,141.17925 165.348887,141.096661 165.446927,141 C165.584679,141 165.734675,141 165.863243,141 C166.169357,141.02442 166.934643,142.111111 166.934643,142.111111 C168.814186,142.211233 169.383559,141.720391 169.576411,141.358974 C169.625437,141.503843 169.733044,141.631747 169.882525,141.722833 C170.412103,142.023199 168.979488,142.604396 168.979488,142.604396 Z" id="Shape" fill="#000000" fill-rule="nonzero" opacity="0.1"></path>
            <path d="M165.68888,142.480734 C165.68888,142.480734 164.952301,141.051397 164.640903,141.022489 C164.377619,141.006626 164.113712,141.006626 163.850428,141.022489 C163.850428,141.022489 163.036,143.094226 162.736578,143.270885 C162.437156,143.447545 162,144.440052 162,144.440052 C162,144.440052 164.155839,146.688448 166.239816,146.248405 C166.904739,146.258673 167.55848,146.433445 168.150129,146.759112 C169.114268,147.298728 173.141495,146.890804 173.632547,145.943266 C173.997842,145.230203 174.144559,144.713071 173.821183,144.337268 C173.625062,144.119377 173.342923,144.016497 173.063645,144.061036 C172.557622,144.134912 171.419818,144.122064 170.422742,142.808358 C170.422742,142.808358 168.584291,141.003217 168.43458,141.000005 C168.284869,140.996793 168.557343,142.686302 165.68888,142.480734 Z" id="Shape" fill="#CC8294" fill-rule="nonzero"></path>
            <path d="M184,119.267235 L183.985359,119.285825 C183.862372,119.42835 182.995608,120.435321 182.732064,120.506584 C182.296309,120.680626 181.870072,120.880265 181.455344,121.10457 C181.455344,121.10457 180.922401,121.857475 180.497804,121.894655 C180.369426,121.914268 180.243641,121.949621 180.122987,122 C180.064422,120.968242 180,120.100697 180,120.100697 L183.370425,118 L183.762811,118.653757 C183.850659,118.917119 183.95022,119.16189 183.98243,119.239349 L184,119.267235 Z" id="Shape" fill="#000000" fill-rule="nonzero" opacity="0.1"></path>
            <path d="M170.589877,104.700034 C170.589877,104.700034 169.262654,106.477511 170.589877,108.836321 C171.303731,110.162349 172.225609,111.358316 173.318386,112.376057 L177.839237,122 C177.839237,122 179.024257,121.33649 179.45679,121.299966 C179.889322,121.263443 180.425544,120.526885 180.425544,120.526885 C180.844959,120.305285 181.276201,120.108151 181.717216,119.936422 C182.013471,119.863375 183,118.718972 183,118.718972 C183,118.718972 182.505254,117.614136 182.614868,117.318904 C182.724483,117.023673 182.29195,116.284072 182.29195,116.284072 C182.157417,115.914385 182.058198,115.532133 181.995695,115.142712 C181.995695,114.83835 181.527612,114.147447 181.527612,114.147447 C181.527612,114.147447 181.062492,113.407846 181.062492,113.003044 C181.062492,112.598241 180.366293,111.000338 180.366293,111.000338 L180.185577,104 L170.589877,104.700034 Z" id="Shape" fill="#CEDDF9" fill-rule="nonzero"></path>
            <path d="M183,118.718972 C183,118.718972 182.004803,119.860331 181.717499,119.936422 C181.276581,120.108151 180.845435,120.305285 180.426112,120.526885 C180.426112,120.526885 179.887047,121.263443 179.457572,121.299966 C179.148219,121.366021 178.849211,121.47561 178.569003,121.625634 C178.183956,121.805208 177.837414,122 177.837414,122 L173.314598,112.376057 C172.918729,112.021426 172.551256,111.634653 172.215734,111.219479 C171.603217,110.477737 171.057936,109.680034 170.586691,108.836321 C170.068354,107.980812 169.884236,106.955445 170.071321,105.966182 C170.155322,105.512764 170.330888,105.082476 170.586691,104.703077 L173.803311,104.468718 L180.209893,104 L180.263207,106.072709 L180.381683,111.000338 C180.381683,111.000338 180.48535,111.246872 180.615673,111.57254 C180.819253,112.025301 180.969402,112.50146 181.06292,112.990869 C181.06292,113.398715 181.527937,114.135272 181.527937,114.135272 C181.527937,114.135272 181.995917,114.835306 181.995917,115.130538 C182.058727,115.520878 182.157913,115.904109 182.292107,116.274941 C182.292107,116.274941 182.724544,117.011498 182.617915,117.303686 C182.511287,117.595874 183,118.718972 183,118.718972 Z" id="Shape" fill="#000000" fill-rule="nonzero" opacity="0.05"></path>
            <path d="M174.899573,123.412736 C174.673954,123.576341 174.47927,123.77016 174.322726,123.987019 C172.162827,124.124847 169.652231,123.125594 169,122.861424 C169.01064,122.789942 169.01064,122.717551 169,122.646068 L169.740724,122 C169.740724,122 175.85006,122.749439 174.899573,123.412736 Z" id="Shape" fill="#000000" fill-rule="nonzero" opacity="0.1"></path>
            <path d="M181,108.64231 C181,108.64231 180.683544,109.69405 180.579114,110.14391 C180.474684,110.593769 180.234177,112.815144 180.234177,112.815144 L180.101266,113.43564 L177.911392,123.673819 L177.433544,125.898297 C176.591772,126.351259 174.484177,125.144394 174.484177,125.144394 C172.028481,125.411207 169,123.869276 169,123.869276 C169,123.869276 169.496835,122.290114 169.382911,121.502084 C169.268987,120.714055 170.072785,120.071842 170.072785,120.071842 C169.882911,119.358272 170.56962,116.237178 170.56962,116.237178 C170.56962,116.237178 170.724684,115.073748 171.300633,114.772808 C171.876582,114.471868 171.224684,114.022008 171.06962,113.755195 C171.015204,113.525626 171.033982,113.285214 171.123418,113.066445 C171.173218,112.892857 171.232373,112.721981 171.300633,112.554536 C169.838608,111.121191 169.613924,108.881201 169.610759,107.637107 C169.606756,107.333577 169.620492,107.030071 169.651899,106.728081 L172.816456,106.185147 L179.731013,105 L180.436709,107.1283 L180.436709,107.1283 L180.613924,107.661927 L181,108.64231 Z" id="Shape" fill="#CEDDF9" fill-rule="nonzero"></path>
            <path d="M180.96517,79.7113276 C180.813563,79.949609 180.702559,80.2008089 180.63469,80.4591961 C180.614861,80.5241575 180.595032,80.592367 180.575203,80.6638246 C179.87789,80.9975639 179.448265,81 178.555968,81 C178.248622,81 178.076772,80.5663825 177.785949,80.5127893 C177.785949,80.5127893 177.349715,79.3532278 177.227437,80.3300853 C176.388017,80.2034105 175.664265,80.6857491 175.069401,80.2643118 L175.069401,80.2643118 C175.069401,80.2082826 175.069401,80.1522533 175.069401,80.0937881 C175.085563,79.7284128 175.062356,79.3626683 175,79 C175,79 177.329886,79 179.088042,79.1388551 C180.271161,79.2411693 181.193201,79.4141291 180.96517,79.7113276 Z" id="Shape" fill="#000000" fill-rule="nonzero" opacity="0.1"></path>
            <path d="M181.999927,76.9989824 C181.998177,78.2004139 181.457238,79.3376564 180.526176,80.0973228 C179.595113,80.8569892 178.372198,81.1588988 177.194426,80.9198551 L177.194426,80.9198551 C175.387154,80.5475589 174.068763,78.9882456 174.002599,77.1447526 C173.936435,75.3012596 175.139649,73.6514992 176.915584,73.1506776 C178.69152,72.6498559 180.579778,73.4278075 181.487064,75.0341006 C181.827263,75.6328311 182.004123,76.3104144 181.999927,76.9989824 Z" id="Shape" fill="#D38884" fill-rule="nonzero"></path>
            <path d="M180,82.5765247 C179.967599,82.8342923 179.951398,83 179.951398,83 C179.951398,83 172.923603,82.6662831 174.141884,81.8285386 C174.455982,81.5972603 174.679392,81.3116161 174.789906,81 L177.838848,81.3544304 C177.838848,81.3544304 178.700717,81.8285386 179.368179,82.2750288 C179.558253,82.395698 179.770867,82.4971541 180,82.5765247 Z" id="Shape" fill="#000000" fill-rule="nonzero" opacity="0.1"></path>
            <path d="M181,106.987014 C180.692481,107.014031 180.379845,106.99879 180.081633,106.942242 C179.952498,106.915026 179.828239,106.878567 179.711063,106.833511 C179.124597,106.601124 177.175081,106.88681 177.175081,106.88681 C177.175081,106.88681 171.864662,107.119197 171.629431,106.88681 C171.497315,106.752495 170.559613,106.771683 169.792696,106.812191 C169.470462,106.829247 169.196563,106.850566 169,106.863358 C169.091388,106.545749 169.282391,106.244343 169.560687,105.978583 L173.06015,105.81442 L180.100967,105 L180.819549,106.462544 L180.819549,106.462544 C180.866118,106.639292 180.926347,106.814345 181,106.987014 L181,106.987014 Z" id="Shape" fill="#000000" fill-rule="nonzero" opacity="0.1"></path>
            <path d="M177.404382,81.6072818 L173.798046,81 C173.669088,81.2950479 173.42032,81.517087 173.117662,81.6072818 C172.638648,81.7199732 170.493763,82.8594092 169.532684,84.224228 L168.571604,85.5921772 C168.571604,85.5921772 167.793587,86.5782275 168.052926,87.3733284 C168.312265,88.1684293 168.608217,90.8636335 168.608217,90.8636335 L168.977393,93.8593483 C168.977393,93.8593483 169.679134,96.0223984 169.459458,96.9708849 C169.239783,97.9193714 169.569296,101.901136 169.569296,101.901136 L168.830943,106.831388 C168.830943,106.831388 171.341954,106.490183 171.576884,106.831388 C171.811815,107.172593 176.827734,106.831388 176.827734,106.831388 C176.827734,106.831388 178.658362,106.411925 179.228907,106.75313 C179.601998,106.959582 180.029207,107.039574 180.449326,106.981643 C180.449326,106.981643 180.006924,105.416484 180.263212,104.555647 C180.5195,103.694809 180.449326,102.088956 180.449326,102.088956 C180.449326,102.088956 180.818502,99.7756502 180.632388,99.3593179 C180.446275,98.9429855 181.041229,97.424781 181.041229,97.424781 L183,86.8443046 C183,86.8443046 182.762018,84.9473316 181.71551,84.302486 C180.669001,83.6576404 179.488246,83.466691 178.859731,82.8625395 C178.231215,82.258388 177.404382,81.6072818 177.404382,81.6072818 Z" id="Shape" fill="#4C4981" fill-rule="nonzero"></path>
            <path d="M179,92.8697084 L179,94.1393558 L180.202024,97.3325188 L180.637072,100.293971 C180.637072,100.293971 181.42016,102.407934 181.42016,103.150678 C181.42016,103.893421 183.331152,107.419867 183.331152,107.419867 C183.331152,107.419867 183.85321,108.613335 183.592181,108.841872 C183.331152,109.070408 181.068898,114.148998 183.914439,113.99664 C186.75998,113.844282 185.867325,108.537156 185.867325,108.537156 L185.477392,106.229572 C185.477392,106.229572 184.929553,100.459025 184.929553,100.036868 C184.929553,100.036868 184.22703,97.5769259 184.149688,97.0373258 C184.072346,96.4977257 183.563178,93.7679839 183.563178,93.7679839 L183.134574,92 L179,92.8697084 Z" id="Shape" fill="#D38884" fill-rule="nonzero"></path>
            <polygon id="Shape" fill="#000000" fill-rule="nonzero" opacity="0.1" points="179 95 174.421784 97.7478134 173 100 174.894554 97.9810496"></polygon>
            <path d="M178,100 C178,100 176.019802,101.471308 175.089109,101.471308 C174.158416,101.471308 172,104 172,104 C172,104 175.059406,101.742239 175.30033,101.813735 C175.541254,101.88523 178,100 178,100 Z" id="Shape" fill="#000000" fill-rule="nonzero" opacity="0.1"></path>
            <path d="M171.956563,101 C171.956563,101 170.737776,102.793961 171.051673,102.987807 C171.36557,103.181653 173,101 173,101 L171.956563,101 Z" id="Shape" fill="#000000" fill-rule="nonzero" opacity="0.1"></path>
            <path d="M179.426473,95 C179.426473,95 177.587815,97.0305728 178.085433,96.9996504 C178.583052,96.9687279 180,95.8108548 180,95.8108548 L179.426473,95 Z" id="Shape" fill="#000000" fill-rule="nonzero" opacity="0.1"></path>
            <path d="M180,98 C180,98 178.961501,99.5594409 179.001105,99.9551199 C179.040708,100.350799 180,98 180,98 Z" id="Shape" fill="#000000" fill-rule="nonzero" opacity="0.1"></path>
            <path d="M180,98 C180,98 178.526601,99.6279152 179.156734,99.9661088 C179.786867,100.304302 180,98 180,98 Z" id="Shape" fill="#000000" fill-rule="nonzero" opacity="0.1"></path>
            <path d="M179.502375,93 C179.502375,93 178.566366,93.9111617 179.249613,93.9726651 C179.93286,94.0341686 180,93.9726651 180,93.9726651 L179.502375,93 Z" id="Shape" fill="#000000" fill-rule="nonzero" opacity="0.1"></path>
            <path d="M180,89 C179.824309,89.6857472 179.58325,90.3551341 179.279762,91 C179.166791,90.6713708 179.073392,90.3370489 179,89.9985975 C179.296912,89.6349297 179.631936,89.3003751 180,89 L180,89 Z" id="Shape" fill="#000000" fill-rule="nonzero" opacity="0.1"></path>
            <path d="M181,75.0335478 C180.935021,75.1853567 180.850052,75.3263963 180.74769,75.4523587 C180.575829,75.618357 180.423168,75.8058334 180.292977,76.0107732 C180.190511,76.3169779 180.135259,76.6390109 180.129392,76.9642363 C180.079484,77.2850276 179.890945,77.6414624 179.574864,77.6503733 C179.419364,77.636304 179.268293,77.5877519 179.131242,77.5077994 C178.99186,77.4303799 178.824959,77.4360025 178.690393,77.5226508 C178.602873,77.6180261 178.552345,77.7453907 178.548988,77.8790856 C178.510661,78.1582837 178.495814,78.4406048 178.504626,78.722648 C178.504626,78.835519 178.504626,78.9454197 178.521262,79.0582908 C178.59872,79.4132639 178.578496,79.7846778 178.463037,80.1275952 C178.318358,80.3758782 178.099438,80.5643367 177.841966,80.6622474 C177.562384,80.7857991 177.270156,80.8735356 176.971358,80.9236329 L176.971358,80.9236329 C176.402087,80.9984833 175.827688,81.0183652 175.255095,80.9830387 C175.202236,80.9845726 175.149576,80.975506 175.099827,80.9563061 C175.075324,80.9458669 175.052781,80.9307732 175.033284,80.9117517 C175.096692,80.5742531 175.131032,80.2312292 175.135872,79.8870017 C174.084715,78.7937417 173.725564,77.1440066 174.216815,75.6653805 C174.708066,74.1867543 175.959403,73.1510839 177.418947,73.0151319 C178.87849,72.87918 180.277903,73.6679413 181,75.0335478 Z" id="Shape" fill="#000000" fill-rule="nonzero" opacity="0.1"></path>
            <path d="M179.351543,71.0048926 C178.993056,70.9669676 178.654806,71.1595099 178.302102,71.2382772 C177.576455,71.3987291 176.833462,71.066156 176.087578,71.0690733 C175.446342,71.105813 174.822556,71.2936509 174.266233,71.6175271 C173.816313,71.8320355 173.405739,72.1220505 173.052004,72.4752155 C172.696721,72.8341362 172.490013,73.3159735 172.473799,73.8230115 C172.523099,74.1135707 172.514252,74.4111493 172.44778,74.6982038 C172.372747,74.8428988 172.283652,74.979712 172.181806,75.1066268 C171.995025,75.4092552 171.949564,75.779452 172.057492,76.1189325 C172.206952,76.4511969 172.409083,76.7566568 172.655934,77.0232978 C173.135844,77.6446843 173.43651,78.3885976 173.867272,79.0479091 C174.055185,79.3341505 174.265968,79.604415 174.497515,79.8560033 C174.535381,79.9005991 174.581545,79.9372709 174.633393,79.9639437 C174.684391,79.9820687 174.738399,79.9899958 174.7924,79.9872821 C175.705963,80.0135379 176.651327,80.033959 177.492615,79.6722129 C177.762116,79.577928 177.990944,79.3923761 178.140204,79.1470976 C178.261554,78.8105825 178.283646,78.4457887 178.203807,78.0968669 C178.165511,77.7082687 178.174248,77.3164107 178.229826,76.9299439 C178.233477,76.7995236 178.286195,76.6753974 178.377268,76.5827844 C178.51779,76.4948444 178.694143,76.4892832 178.839832,76.5681978 C178.982749,76.6441651 179.138804,76.6917044 179.299504,76.7082286 C179.614626,76.7082286 179.814107,76.3464825 179.877709,76.0314133 C179.806968,75.454664 180.054287,74.8850243 180.522407,74.5465038 C180.961629,73.9840079 181.108748,73.243894 180.918477,72.5539828 C180.710324,71.8975886 180.074299,71.0778253 179.351543,71.0048926 Z" id="Shape" fill="#1E1637" fill-rule="nonzero"></path>
            <path d="M184.974611,88.801799 C184.891109,89.2671475 184.891109,89.7414708 184.974611,90.2068194 C184.936999,90.5833649 184.974611,92.6599851 184.974611,92.6599851 C183.720876,92.3171601 180.533256,93 180.533256,93 L180.154001,91.9799552 C179.937524,91.7282847 179.775896,91.4422884 179.677582,91.1369429 C179.558614,90.806776 179.460253,90.4709242 179.382954,90.1309483 C179.217442,89.4244001 179.092946,88.7106262 179.009968,87.9925072 C178.850117,86.9106415 180.646092,85.7444745 182.006394,85.0981651 C183.366696,84.4518557 184.557744,87.2085058 184.557744,87.2085058 C184.557744,87.2085058 185.125059,88.2678912 184.974611,88.801799 Z" id="Shape" fill="#000000" fill-rule="nonzero" opacity="0.1"></path>
            <path d="M184.974611,88.804981 C184.891377,89.2703075 184.891377,89.7445504 184.974611,90.2098769 C184.936999,90.5835792 184.974611,92.6600152 184.974611,92.6600152 C183.720876,92.3200304 180.533256,93 180.533256,93 L180.154001,91.9800456 C179.93688,91.728762 179.775188,91.4426761 179.677582,91.1371081 C179.558608,90.8079233 179.460246,90.4730361 179.382954,90.1340125 C179.217685,89.4274872 179.09319,88.7137879 179.009968,87.995761 C178.850117,86.9111815 180.646092,85.7479277 182.006394,85.0988658 C183.366696,84.449804 184.557744,87.2090194 184.557744,87.2090194 C184.557744,87.2090194 185.125059,88.2598815 184.974611,88.804981 Z" id="Shape" fill="#4C4981" fill-rule="nonzero"></path>
            <path d="M180.920223,72.5676113 C180.859771,72.367643 180.772705,72.1767259 180.661371,72 C180.678821,72.0494841 180.696272,72.0960573 180.710814,72.1455414 C180.902232,72.8339201 180.754227,73.57239 180.312356,74.1336365 C179.841414,74.471405 179.592604,75.0397795 179.663771,75.6152476 C179.614328,75.929617 179.413645,76.2760054 179.082081,76.2876487 C178.918964,76.2738611 178.760493,76.2262809 178.616729,76.147929 C178.470519,76.0720594 178.295442,76.0775694 178.154285,76.1624832 C178.062477,76.2559491 178.009474,76.380764 178.005954,76.5117825 C177.94978,76.897369 177.940989,77.2883885 177.979778,77.6761134 C178.011771,78.0312344 178.081574,78.4125527 177.915792,78.7269221 C177.762498,78.9688716 177.533382,79.1531327 177.264298,79.250871 C176.417939,79.6118136 175.466875,79.5914378 174.547804,79.5652404 C174.493292,79.5669421 174.438967,79.5580453 174.387839,79.5390429 C174.334471,79.5143575 174.287647,79.4774656 174.251142,79.4313423 C174.015784,79.1823891 173.803561,78.9125089 173.617099,78.6250431 C173.18374,77.9671962 172.881261,77.227846 172.398458,76.6049289 C172.267578,76.4361009 172.107613,76.2701838 172,76.0926233 L172,76.1275532 C172.148277,76.460235 172.351845,76.7653451 172.60205,77.0299097 C173.081944,77.649916 173.387332,78.392177 173.817783,79.0500239 C174.006914,79.3363492 174.219996,79.6060846 174.454734,79.8563231 C174.491761,79.9007384 174.537238,79.9373475 174.588522,79.9640237 C174.639879,79.9818954 174.694171,79.9897989 174.748487,79.9873104 C175.667558,80.0135078 176.621531,80.0338836 177.464982,79.672941 C177.736107,79.5788655 177.966315,79.3937258 178.116475,79.1489921 C178.238556,78.8132245 178.260782,78.4492409 178.180461,78.1010942 C178.144885,77.7132516 178.153667,77.322612 178.206637,76.9367633 C178.21278,76.8071889 178.265451,76.6841885 178.354968,76.5903748 C178.496337,76.5026301 178.673753,76.4970814 178.82032,76.5758207 C178.964099,76.6516192 179.121095,76.6990529 179.282764,76.7155404 C179.602694,76.7155404 179.800469,76.3545978 179.864455,76.0402284 C179.869176,75.7213706 179.927176,75.4055511 180.036053,75.1058528 C180.171745,74.9043403 180.331973,74.7205153 180.51304,74.5586173 C180.958003,73.9977952 181.109237,73.2583009 180.920223,72.5676113 Z" id="Shape" fill="#000000" fill-rule="nonzero" opacity="0.2"></path>
            <path d="M212.047804,73.2252878 L209.270676,79.1035853 C209.270676,79.1035853 208.862464,80.2081673 208.598893,80.4130753 C208.335323,80.6179833 207.168544,84.1078222 207.168544,84.1078222 L204.188917,88.6798313 L204.188917,88.6798313 L203.986418,89 L202.819639,88.6798313 L202,85.6318252 L202.048214,84.7481596 L202.048214,84.6361005 C202.048214,84.6361005 203.886776,82.7150883 204.298202,82.5710124 C204.298202,82.5710124 204.619629,82.6094326 205.23034,81.1206481 C205.841051,79.6318637 206.400334,79.3116949 206.400334,79.3116949 L206.721761,78.2359281 L210.170671,72.7642449 C210.170671,72.7642449 213.063513,68.6372703 213.851008,70.4686353 C214.638504,72.3000003 212.047804,73.2252878 212.047804,73.2252878 Z" id="Shape" fill="#FFD2C6" fill-rule="nonzero"></path>
            <path d="M200.990196,114.626458 C200.981978,114.722044 200.953815,114.814374 200.907823,114.896511 C200.623779,115.344554 199.024613,124.461924 199.024613,124.461924 C199.152433,125.075682 198.791697,126.303197 198.558781,126.861717 C198.325865,127.420236 197.808906,130.317172 197.808906,130.317172 C197.808906,130.317172 197.681086,136.565225 197.348755,137.5411 C197.016424,138.516974 197.453851,140.609888 197.453851,140.609888 C197.422606,141.570419 197.956609,142.589256 198.274738,143.104813 L198.337227,143.203014 C198.439483,143.362591 198.507653,143.454655 198.507653,143.454655 C198.595206,143.640871 198.718126,143.805044 198.868389,143.936455 L198.94224,143.99783 C199.381168,144.314649 199.871784,144.538544 200.388023,144.65762 L200.439151,144.65762 C200.643662,144.70672 200.780003,144.728202 200.780003,144.728202 L200.907823,145.483124 L199.541573,145.790003 L196.934051,145.983336 C196.934051,145.983336 193.860698,146.238046 194.559445,144.755821 C194.607821,144.656877 194.649588,144.554322 194.684425,144.448942 L194.684425,144.448942 C194.711496,144.376619 194.735196,144.302876 194.755436,144.227989 C195.17582,142.80714 194.891777,141.079413 194.891777,141.079413 L194.298125,136.034325 C193.318174,131.348285 195.067884,126.134414 195.067884,126.134414 C195.067884,126.134414 194.917341,125.717059 195.252512,124.658327 C195.587684,123.599595 195.252512,121.28266 195.252512,121.28266 C195.252512,121.28266 195.073565,118.299797 194.840649,116.82371 C194.748853,116.201892 194.717437,115.571414 194.746914,114.942543 C194.758144,114.574662 194.789443,114.207817 194.840649,113.843917 L200.723195,113 C200.723195,113 201.061207,114.034182 200.990196,114.626458 Z" id="Shape" fill="#FFD2C6" fill-rule="nonzero"></path>
            <path d="M200,144.658159 L198.517644,144.861116 L195.688532,144.988979 C195.688532,144.988979 192.354001,145.157434 193.112129,144.177151 C193.164616,144.111713 193.209932,144.043888 193.247729,143.974194 L193.247729,143.974194 C193.277101,143.926362 193.302815,143.877591 193.324775,143.828065 C193.902569,143.84061 194.473226,143.916047 195.013613,144.051318 C195.962814,144.292837 196.677796,143.66367 196.677796,143.66367 L197.14007,143.083212 L197.20787,143 C197.318815,143.105538 197.392779,143.166425 197.392779,143.166425 C197.504601,143.309042 197.666197,143.432157 197.864298,143.525659 L197.78417,143.633226 L197.337306,144.254275 C197.337306,144.254275 197.910525,144.292837 198.693308,144.376049 C199.00771,144.429579 199.331247,144.313278 199.432945,144.110175 L199.488418,144.110175 C199.710309,144.142648 199.858236,144.156855 199.858236,144.156855 L200,144.658159 Z" id="Shape" fill="#000000" fill-rule="nonzero" opacity="0.1"></path>
            <path d="M201.979803,145.845852 C201.877026,146.326016 198.984997,146.472407 198.984997,146.472407 C198.984997,146.472407 197.374825,146.314305 196.923748,146.69785 C196.472672,147.081396 195.145136,146.990634 195.093748,146.990634 C195.042359,146.990634 194.342905,146.964283 194.068833,145.676037 C193.794761,144.387792 194.425697,144.212122 194.454247,144.191627 L194.454247,144.191627 C195.013978,144.199964 195.567836,144.309996 196.090113,144.516616 C196.969427,144.865028 197.631767,143.957401 197.631767,143.957401 L198.122813,143 C198.225589,143.152247 198.294107,143.240082 198.294107,143.240082 C198.397696,143.44582 198.547395,143.623424 198.730909,143.758308 L198.242719,144.809399 C198.242719,144.809399 198.773733,144.865028 199.498882,144.982142 C199.674874,145.023451 199.859654,144.98163 200.002344,144.868192 C200.145034,144.754754 200.230589,144.581662 200.23545,144.396575 C200.23689,144.370246 200.23689,144.343854 200.23545,144.317524 C200.23545,144.317524 200.686526,144.452204 201.24609,144.610307 C201.766618,144.76399 202.085534,145.301033 201.979803,145.845852 L201.979803,145.845852 Z" id="Shape" fill="#626696" fill-rule="nonzero"></path>
            <path d="M207.880523,119.987904 C207.807719,120.43168 207.731881,121.582438 207.731881,121.582438 C207.989729,122.546504 207.328426,124.835777 207.328426,124.835777 L206.997775,126.142622 C207.143383,127.810609 206.087725,131.89029 206.087725,131.89029 C206.087725,131.89029 205.38092,135.6731 205.013867,137.304361 C204.794254,138.211212 204.861073,139.164639 205.204977,140.03129 L205.232279,140.098621 C205.232279,140.129226 205.247446,140.159832 205.253513,140.190437 C205.264465,140.235292 205.278659,140.279277 205.295982,140.32204 C205.378159,140.546648 205.500517,140.754124 205.656969,140.934145 C205.717214,141.007652 205.783147,141.076219 205.854146,141.1392 L205.854146,141.1392 C206.199923,141.448282 206.596069,141.694714 207.025076,141.867605 L207.025076,141.867605 L207.21012,141.941058 C207.401879,142.012788 207.597315,142.074086 207.795585,142.12469 L207.795585,142.12469 L207.862322,142.12469 L207.71368,143 L205.766175,142.495013 L203.157366,141.641126 L201.892397,140.924963 C201.892397,140.924963 201.892397,140.854571 201.931833,140.719908 C201.933316,140.711815 201.933316,140.703517 201.931833,140.695424 C201.931833,140.637274 201.956101,140.569942 201.971268,140.490369 C202.171479,139.342671 202.668973,136.132179 202.420226,133.757211 C202.116876,130.828288 203.330276,126.785333 203.612391,125.824327 C203.787747,125.273216 203.862772,124.69463 203.833836,124.116554 C203.354544,123.412633 203.245338,120.593888 203.245338,120.593888 C203.245338,120.593888 202.36259,118.775936 201.63455,116.847804 C201.391935,116.218452 201.216024,115.564961 201.109755,114.898249 C201.023541,114.429126 200.987943,113.951962 201.003583,113.475104 C201.003583,113.475104 206.921937,108.024307 207.571106,113.300654 C207.592341,113.481225 207.613575,113.649554 207.634809,113.817883 C208.211174,118.668817 207.950293,119.55637 207.880523,119.987904 Z" id="Shape" fill="#FFD2C6" fill-rule="nonzero"></path>
            <path d="M209,143.402923 L208.826241,144 L206.549645,143.655532 L203.5,143.073069 L202,142.56785 C202,142.56785 202,142.519833 202.046099,142.427975 C202.047833,142.422455 202.047833,142.416794 202.046099,142.411273 C202.046099,142.371608 202.074468,142.325678 202.092199,142.271399 L202.304965,142.271399 L202.304965,142.271399 C202.738217,142.246645 203.175307,142.28167 203.58156,142.373695 C204.078014,142.482255 204.730496,142.607516 204.861702,142.555324 C205.092024,142.497295 205.342098,142.471566 205.592199,142.480167 L205.907801,142.06263 L205.957447,142 C206.052694,142.153441 206.195813,142.295051 206.379433,142.417537 C206.455515,142.46998 206.537243,142.519491 206.624113,142.565762 L206.624113,142.709812 L206.606383,142.91858 C206.94703,143.046277 207.315678,143.146013 207.702128,143.215031 C207.802255,143.229706 207.906965,143.229706 208.007092,143.215031 L208.007092,143.215031 L208.223404,143.265136 C208.447568,143.314065 208.676028,143.355879 208.907801,143.390397 L208.907801,143.390397 L209,143.402923 Z" id="Shape" fill="#000000" fill-rule="nonzero" opacity="0.1"></path>
            <path d="M206.312292,145.933344 C205.759938,145.767008 204.426882,145.496305 204.210878,145.70504 C203.994874,145.913775 202.146494,145.70504 202.146494,145.70504 C201.752723,145.698545 201.390932,145.474556 201.192989,145.114712 C200.807267,144.481985 201.11893,142.437038 201.11893,142.437038 L201.254705,142.437038 L201.483052,142.410946 L201.483052,142.410946 C201.859804,142.372426 202.23989,142.42599 202.593931,142.567497 C203.02594,142.740356 203.593723,142.936044 203.707897,142.854507 C203.907765,142.76168 204.125627,142.720321 204.343567,142.733833 L204.652144,142 C204.735737,142.239356 204.860204,142.460454 205.019351,142.652296 C205.084788,142.733951 205.155963,142.810269 205.23227,142.880599 L205.204498,143.425266 C205.501247,143.62495 205.821922,143.781803 206.158003,143.891658 C206.325444,143.958817 206.514595,143.895328 206.614698,143.738368 C206.628936,143.712656 206.640325,143.685297 206.648641,143.656831 L206.648641,143.656831 C206.898453,143.781337 207.16164,143.873331 207.432428,143.930795 L207.432428,143.930795 C208.150051,143.851656 208.811272,144.349252 208.975317,145.091882 C209.268465,146.001835 206.864646,146.099679 206.312292,145.933344 Z" id="Shape" fill="#626696" fill-rule="nonzero"></path>
            <path d="M200.988938,113.593702 L200.635833,113.695939 C200.358499,113.775558 200.074278,113.831907 199.786472,113.864331 C197.960504,114.107896 194.954338,113.960554 194,113.903421 C194.012576,113.542949 194.04763,113.183492 194.104977,112.826921 L200.693093,112 C200.693093,112 201.068467,113.013354 200.988938,113.593702 Z" id="Shape" fill="#000000" fill-rule="nonzero" opacity="0.1"></path>
            <path d="M207,112.375033 C207,112.375033 204.639267,112.76292 202.716513,113.206689 C202.07663,113.354613 201.474022,113.512397 201.042256,113.66032 C200.771193,113.747018 200.493781,113.80969 200.212893,113.847689 C198.072703,114.176407 194.270681,113.8707 194.270681,113.8707 C193.226988,110.287675 195.538021,105.774379 195.538021,105.774379 C195.485215,105.416076 196.019487,104.314871 196.019487,104.314871 L196.019487,104.278712 L196.348747,103 L205.123839,103 L205.232557,103.548959 L205.456205,104.6666 L206.83537,111.592685 L207,112.375033 Z" id="Shape" fill="#626696" fill-rule="nonzero"></path>
            <path d="M208,113.888294 L207.945517,113.910277 L206.884708,114.371918 C205.737367,114.890086 202.304959,115 201.115955,115 C201.024871,114.518632 200.987262,114.029013 201.003785,113.539709 C201.003785,113.539709 207.256472,107.946637 207.942312,113.360705 C207.955132,113.542849 207.977566,113.728134 208,113.888294 Z" id="Shape" fill="#000000" fill-rule="nonzero" opacity="0.1"></path>
            <path d="M207,113.7813 L206.793044,113.881247 L205.800258,114.355185 C204.708493,114.89683 201.391206,115 200.329434,115 L200.050494,115 C199.561599,114.98388 199.069705,114.490596 199.069705,114.355185 C199.069705,114.284256 199.018716,113.936056 198.976725,113.639441 C198.937733,113.40086 198.90774,113.194519 198.90774,113.194519 C197.769026,112.667601 196.666498,112.054565 195.608449,111.360021 C194.777627,110.750672 194.987582,106.420742 195.146548,104.244492 C195.203536,103.493283 195.254525,103 195.254525,103 L203.832681,103.53842 L205.032423,103.612574 L205.719275,103.777002 L205.902236,103.818915 C205.902236,103.818915 206.39713,107.687802 206.640077,108.01021 C206.883025,108.332617 206.724059,109.415905 206.694066,110.034927 C206.693662,110.300596 206.66651,110.565438 206.613083,110.824825 C206.613083,110.824825 206.967007,111.908114 206.886025,112.51424 C206.848916,112.940541 206.887596,113.370539 207,113.7813 L207,113.7813 Z" id="Shape" fill="#626696" fill-rule="nonzero"></path>
            <circle id="Oval" fill="#FFD2C6" fill-rule="nonzero" cx="198.5" cy="79.5" r="3.5"></circle>
            <path d="M196.801162,81.009782 C196.801162,81.009782 197.03653,84.366372 196.37692,85.1374805 C195.623141,85.9227439 194.829711,86.665673 194,87.3631113 L194.52885,89.6431733 L197.513076,90 L201,86.1263137 L200.206725,85.1253847 C200.206725,85.1253847 199.599419,82.9814006 200.099211,81.9109206 C200.599004,80.8404405 196.801162,81.009782 196.801162,81.009782 Z" id="Shape" fill="#FFD2C6" fill-rule="nonzero"></path>
            <path d="M204,88.6518106 L204,88.6518106 L203.814978,89 L202.748899,88.6518106 L202,85.3370474 L202.044053,84.3760446 L202.264317,84 C202.264317,84 203.43906,84.031337 203.389134,85.2987465 C203.339207,86.4059889 203.873715,88.2305014 204,88.6518106 Z" id="Shape" fill="#000000" fill-rule="nonzero" opacity="0.1"></path>
            <path d="M207,105.471793 C207,105.471793 206.052459,105.705527 204.967213,105.862567 C203.881967,106.019607 202.629508,106.103605 202.114754,105.767613 C201.252459,105.197886 196.580328,105.36223 195.229508,105.420664 L195,105.420664 L195.347541,104 L204.609836,104 L204.72459,104.609899 L206.036066,104.693898 L206.786885,104.880154 C206.92459,105.238059 207,105.471793 207,105.471793 Z" id="Shape" fill="#000000" fill-rule="nonzero" opacity="0.1"></path>
            <path d="M202.425127,85 C202.425127,85 203.683689,85.027588 203.627054,86.1433694 C203.570419,87.2591508 204.31297,89.1780496 204.31297,89.1780496 L204.026647,89.8187043 C204.026647,89.8187043 203.627054,91.378959 203.941694,91.7682564 C204.256335,92.1575537 205.39848,92.1575537 204.740881,95.3608272 C204.740881,95.3608272 204.599293,97.757918 204.942251,98.5365128 C205.285209,99.3151075 205.285209,101.181896 205.798073,101.963556 C206.266335,102.795637 206.668164,103.661596 207,104.553762 C207,104.553762 203.284096,105.359945 202.311857,104.80512 C201.339618,104.250294 195.364595,104.526174 195.364595,104.526174 C195.364595,104.526174 195.392912,103.551398 195.364595,103.437981 C195.308535,103.19304 195.359848,102.936419 195.506183,102.729889 C195.707553,102.463205 196.022193,102.018732 195.849141,101.629434 C195.676089,101.240137 196.277052,100.663854 195.962412,100.059984 C195.647771,99.4561128 195.267056,99.3365648 195.333131,99.0055088 C195.367313,98.6220029 195.240125,98.2414205 194.980733,97.9510341 C194.754192,97.6720887 193.209307,94.7293685 193.209307,94.7293685 L192.951302,93.3560991 C192.951302,93.3560991 190.962774,91.9368497 191.000531,91.268607 C191.038288,90.6003643 191.752522,89.6715683 191.752522,89.6715683 L193.665536,87.8323682 C193.665536,87.8323682 194.725874,88.9450842 195.754749,88.5557869 C196.783623,88.1664895 198.995546,86.2997014 198.995546,86.2997014 C198.995546,86.2997014 199.785294,85.882816 199.841929,85.5762827 C199.898564,85.2697493 200.386257,85.5486947 200.386257,85.5486947 C200.386257,85.5486947 201.100491,85.165528 201.242079,85.3004027 C201.484529,85.4235747 201.745959,85.5074374 202.016095,85.5486947 L202.425127,85 Z" id="Shape" fill="#FFCDE5" fill-rule="nonzero"></path>
            <path d="M192.367289,91 L191.748206,91.4560603 C191.277712,92.3871651 191.012614,93.3973995 190.968739,94.426453 C190.804667,95.9738852 190.542242,97.5108074 190.182856,99.0290614 L188.957521,101.078332 C188.957521,101.078332 186.946304,105.029855 186.683273,106.079993 C186.420243,107.130132 185.226985,108.903367 185.226985,108.903367 C185.226985,108.903367 181.175681,112.308817 184.00165,112.923898 C186.827619,113.53898 186.917434,110.223541 186.917434,110.223541 C186.917434,110.223541 187.558971,109.542451 187.684071,109.07739 C187.80917,108.612328 191.376115,102.683545 191.376115,102.683545 C191.376115,102.683545 192.630319,101.087333 192.367289,100.241222 C192.367289,100.241222 194,96.6407457 194,95.7406267 C193.969596,94.9876218 193.881696,94.2376122 193.73697,93.49633 L194,91.6150813 L192.367289,91 Z" id="Shape" fill="#FFD2C6" fill-rule="nonzero"></path>
            <path d="M200,98 C200,98 196.717435,99.8854726 196.079363,99.9866245 C195.441291,100.087776 198.860323,99.5820167 198.860323,99.5820167 L200,98 Z" id="Shape" fill="#000000" fill-rule="nonzero" opacity="0.1"></path>
            <path d="M202,99 C202,99 197.831765,100.054698 196,99.8648526 C196,99.8595791 200.56,100.510855 202,99 Z" id="Shape" fill="#000000" fill-rule="nonzero" opacity="0.1"></path>
            <path d="M202.982223,100 C202.982223,100 199.2159,101.804524 197,101.510514 C197,101.510514 202.178694,102.295441 202.982223,101.877353 L200.667209,101.389133 C200.667209,101.389133 203.237087,100.350655 202.982223,100 Z" id="Shape" fill="#000000" fill-rule="nonzero" opacity="0.1"></path>
            <path d="M198.415033,73.0993609 C197.435408,72.8625106 196.399429,73.0537058 195.573956,73.6236965 C194.999427,74.0673651 194.62693,74.7468296 193.970326,75.0788053 C193.629317,75.2219118 193.279237,75.343166 192.922284,75.4418069 C191.628353,75.9619911 190.865107,77.2853279 191.075584,78.6436668 C191.1766,79.2021308 191.441767,79.7171586 191.574351,80.2694174 C191.807951,81.2529345 191.599605,82.2829902 191.347065,83.2634046 C190.640487,85.9818207 189.568266,88.5955035 188.158745,91.0353611 C188.047726,91.186589 187.992091,91.3703133 188.000907,91.5565942 C188.03645,91.6817736 188.103801,91.7960126 188.196626,91.8885699 C189.522462,93.39332 191.669054,93.9114504 193.705159,93.9797071 C194.452594,94.0523351 195.206272,93.9292346 195.889631,93.6229107 C196.311709,93.3841932 196.674962,93.0568381 196.953457,92.6642143 C197.657898,91.7168865 198.008023,90.5596028 197.944677,89.3878925 C197.891012,88.4416064 197.569024,87.4860126 197.812093,86.5707522 C197.83623,86.4429337 197.895137,86.3239257 197.982558,86.2263661 C198.200374,86.0060831 198.563401,86.0650321 198.872762,86.0278012 C199.715615,85.9316213 200.258577,85.059797 200.359593,84.2314088 C200.460609,83.4030206 200.249106,82.5715299 200.242793,81.7493469 C200.239538,80.6485221 200.589721,79.5747457 201.243483,78.6808978 C201.524434,78.3023833 201.874834,77.930074 201.97585,77.4553797 C202.095806,76.8596848 201.745407,76.4222214 201.442359,75.9537322 C200.972003,75.2215239 200.74156,74.3683151 200.024977,73.8098512 C199.552056,73.4528513 199.000718,73.2095383 198.415033,73.0993609 Z" id="Shape" fill="#000000" fill-rule="nonzero" opacity="0.1"></path>
            <path d="M198.401761,73.0975658 C197.427662,72.8636098 196.398281,73.0549828 195.578237,73.6224898 C195.003425,74.0697622 194.630745,74.7499891 193.970659,75.0823374 C193.628874,75.2231893 193.278711,75.3435115 192.922102,75.4426402 C191.630118,75.9628448 190.867047,77.2841456 191.074494,78.6418807 C191.175559,79.2009712 191.440857,79.716577 191.573506,80.2694554 C191.80722,81.2540761 191.601931,82.2852876 191.346108,83.2668021 C190.639533,85.982978 189.567847,88.5943713 188.159378,91.0319489 C188.045944,91.1821944 187.990025,91.3669718 188.001463,91.5537668 C188.033914,91.6796554 188.1005,91.7945214 188.194119,91.8861151 C189.520607,93.3956596 191.668255,93.9112654 193.705362,93.9795987 C194.452851,94.0522422 195.206615,93.9301214 195.890909,93.625508 C196.312665,93.3844815 196.67589,93.0558852 196.955258,92.6626298 C197.658689,91.7137183 198.007835,90.555256 197.943807,89.3826317 C197.886958,88.4508141 197.564811,87.4786177 197.808,86.5623304 C197.834781,86.435236 197.893403,86.3167283 197.978549,86.2175579 C198.19963,85.9970277 198.559677,86.0560429 198.872349,86.0218762 C199.712458,85.9255884 200.255687,85.0496798 200.356752,84.2234682 C200.457818,83.3972566 200.246212,82.5617268 200.243053,81.7386212 C200.2383,80.6372924 200.588831,79.562856 201.244236,78.6698352 C201.522167,78.28779 201.875897,77.9150629 201.976963,77.4274117 C202.09382,76.8310484 201.743248,76.3962002 201.440051,75.9240793 C200.969464,75.1941555 200.738907,74.3368833 200.021972,73.7777927 C199.54308,73.4301516 198.988295,73.1972312 198.401761,73.0975658 Z" id="Shape" fill="#985C7E" fill-rule="nonzero"></path>
            <path d="M198,108 C198,108 198.750403,111.932949 200,113 L198,108 Z" id="Shape" fill="#000000" fill-rule="nonzero" opacity="0.1"></path>
            <g id="Group" opacity="0.1" transform="translate(188.000000, 75.000000)" fill="#000000" fill-rule="nonzero">
                <path d="M3.40565217,3.13137931 C3.36913043,3.00103448 3.32652174,2.86758621 3.28086957,2.73724138 C3.32956522,2.87068966 3.36,2.98862069 3.40565217,3.13137931 Z" id="Shape"></path>
                <path d="M13.4947826,0.195517241 C13.5075137,0.298558234 13.5075137,0.402821076 13.4947826,0.505862069 C13.4034783,0.980689655 13.0595652,1.35310345 12.7886957,1.73172414 C12.1589536,2.62611125 11.8213963,3.69999892 11.823913,4.80103448 C11.823913,5.63586207 12.0308696,6.46758621 11.9334783,7.2837931 C11.836087,8.1 11.3247826,8.98448276 10.5030435,9.07758621 C10.1986957,9.11482759 9.85478261,9.05586207 9.64478261,9.2762069 C9.56185278,9.37511566 9.50433146,9.49349161 9.4773913,9.62068966 C9.24304348,10.5362069 9.55652174,11.4827586 9.60826087,12.4386207 C9.66486632,13.6110633 9.32302232,14.7675152 8.64043478,15.7127586 C8.37277666,16.1062444 8.02237666,16.4338618 7.61478261,16.6717241 C6.9570738,16.9783033 6.23137236,17.1014583 5.51173913,17.0286207 C3.59130435,16.9634483 1.55521739,16.4575862 0.264782609,15.0082759 C0.230569762,15.0948198 0.220050411,15.1892142 0.234347826,15.2813793 C0.265619099,15.4071621 0.329784087,15.5219316 0.42,15.6134483 C1.69826087,17.1217241 3.76782609,17.6368966 5.73086957,17.7051724 C6.45118186,17.7777549 7.17754132,17.6557367 7.83695652,17.3513793 C8.24337878,17.1105554 8.59339763,16.7822353 8.8626087,16.3893103 C9.5404651,15.4411964 9.87691691,14.2837077 9.81521739,13.112069 C9.76043478,12.1810345 9.45,11.2096552 9.68434783,10.2941379 C9.71015494,10.1671504 9.76664576,10.0487423 9.84869565,9.94965517 C10.0617391,9.72931034 10.4086957,9.78827586 10.71,9.75413793 C11.5195652,9.65793103 12.0430435,8.78275862 12.1404348,7.95724138 C12.2378261,7.13172414 12.033913,6.29689655 12.0308696,5.47448276 C12.0262885,4.37407949 12.364076,3.30054609 12.9956522,2.40827586 C13.2634783,2.02655172 13.6043478,1.65413793 13.7017391,1.16689655 C13.7522108,0.828170198 13.6785335,0.482355515 13.4947826,0.195517241 L13.4947826,0.195517241 Z" id="Shape"></path>
            </g>
            <ellipse id="Oval" fill="#00A7B5" fill-rule="nonzero" opacity="0.1" cx="40.5" cy="156.5" rx="6.5" ry="1"></ellipse>
            <path d="M42.0688709,145 C42.0688709,145 32.4594039,149.560267 37.4242952,154.913624 C37.7109668,155.598081 38.4443748,156.035558 39.2417378,155.997727 C39.2417378,155.997727 38.970166,155.546817 40.0042282,155.18545 C40.3728055,155.055312 40.7233942,154.885716 41.0487355,154.680174 C41.4857829,154.402841 41.8122142,154.001947 41.9783469,153.538509 L41.9783469,153.538509 C41.9783469,153.538509 43.9455023,151.124061 42.4205217,146.656535 C42.4205217,146.656535 42.6189781,145.377357 42.4448935,145.188679 L41.2785271,146.656535 C41.2785271,146.656535 42.4866738,147.401655 42.6259415,148.495352 C42.6259415,148.495352 41.369051,146.659733 41.0939974,146.870797 C41.0382904,146.91237 40.5160367,147.673481 40.5160367,147.673481 C40.5160367,147.673481 42.6050513,148.978242 42.7617274,150.669954 C42.7617274,150.669954 41.5849159,148.300278 40.3245437,147.961296 L39.6073154,149.154128 C39.6073154,149.154128 41.8913047,150.433306 42.1489498,152.352072 C42.1489498,152.352072 40.8224255,149.915239 39.4680478,149.425954 L38.935349,150.685943 C38.935349,150.685943 41.1357777,151.965121 41.3377158,153.564092 C41.3377158,153.564092 39.4959013,150.890612 38.83438,150.976956 C38.83438,150.976956 38.4200588,152.160195 38.4862109,152.524761 C38.4862109,152.524761 40.0460085,153.484144 40.073862,154.421141 C40.073862,154.421141 38.6359236,152.751815 38.4130954,152.863743 C38.4130954,152.863743 38.3225714,154.539465 38.7612645,155.422097 C38.3088067,154.635215 38.0891053,153.753045 38.124115,152.863743 C37.6787157,153.225085 37.3590297,153.698902 37.2049486,154.226067 C37.2049486,154.226067 36.7906274,153.301861 38.1519686,152.457604 C38.1519686,152.457604 38.2807911,151.152843 38.4374672,150.992946 C38.4374672,150.992946 36.964712,151.651722 36.3484527,152.464 C36.3484527,152.464 36.5782443,151.255177 38.5767349,150.653964 L39.0850618,149.374786 C39.0850618,149.374786 37.0865711,150.151887 36.4668302,150.836247 C36.4668302,150.836247 36.9124866,149.637018 39.2521829,149.061388 L39.9485211,147.884545 C39.9485211,147.884545 38.1728587,148.434591 37.3059177,149.061388 C37.3059177,149.061388 37.977884,148.028452 40.1609043,147.555157 L40.7249382,146.816432 C40.7249382,146.816432 39.4332309,147.241758 39.0746167,147.392062 C38.7160025,147.542365 38.642887,147.468812 38.642887,147.468812 C39.3010479,146.957299 40.101805,146.624996 40.9547298,146.509429 C40.9547298,146.509429 42.1559132,145.079949 42.0688709,145 Z" id="Shape" fill="#00A7B5" fill-rule="nonzero"></path>
            <path d="M51.5077209,153.047828 C52.3967898,153.580301 53.7873058,153.925941 55.5377563,152.783149 L55.5192981,155.3085 C55.645429,157.042927 57.7588903,163.351634 57.7588903,163.351634 L59.2509262,168.545574 C60.3211045,172.213186 60.874159,176.015409 60.893704,179.839591 C60.8554768,181.043567 61.0166498,182.245527 61.3705403,183.395634 C62.1642419,185.575345 61.062904,188.37783 60.5768386,189.41475 C59.6908461,189.726137 58.7771664,189.959678 58.1157484,190.115371 C58.0404514,190.13304 57.9664441,190.155929 57.8942502,190.183877 L57.8942502,190.168307 C57.8942502,190.168307 55.6546581,191.068216 54.6579165,190.943662 C53.916513,190.850245 53.4519823,191.787521 54.0426439,192.475687 C53.5598241,192.626176 53.0554676,192.693542 52.5506079,192.674975 C51.5538664,192.55042 51.0585719,194.284847 52.9228478,194.779953 C54.7871237,195.275059 65.369812,194.779953 65.369812,194.779953 C65.9826149,194.470025 66.3104216,193.779514 66.16659,193.101575 C66.9787498,193.070437 67.4863496,193.045526 67.4863496,193.045526 C67.4863496,193.045526 69.3537019,192.179869 67.4863496,189.828895 L67.387906,189.906742 L66.9879788,188.717242 L66.9879788,187.10737 C66.9879788,187.10737 69.3537019,175.58604 68.6061457,174.240847 C67.8585895,172.895654 67.4863496,165.951718 67.4863496,165.951718 L67.735535,158.40369 C68.4092585,156.993105 68.7568875,154.78537 68.9322402,153.05717 C69.1857485,152.232274 69.3457224,151.380865 69.4090764,150.519364 C69.4367637,150.11456 69.4613746,149.68796 69.4767564,149.24579 C69.4866358,148.27698 69.3337151,147.313521 69.0245311,146.396596 C69.866142,145.126439 70.8085747,143.927786 71.8424794,142.812528 C72.7149777,141.99152 73.1335433,140.789184 72.9622755,139.595898 L72.347003,135.389055 L70.8518906,128.227148 C71.0395487,126.234269 70.6303925,125.088364 70.1750908,124.440678 C70.2827635,123.79922 70.3842834,123.154649 70.4611925,122.510077 C70.7918245,119.702932 70.6440655,116.859174 70.024349,114.10262 C69.8090036,113.140433 69.5136728,112.153336 68.8491784,111.424689 C68.0923931,110.599513 66.8680007,110.095066 66.5880517,109.014552 C66.5448464,108.740756 66.4873404,108.469468 66.4157754,108.201831 C66.1419791,107.491868 65.2775211,107.23653 64.5207358,107.143114 C63.1732889,106.978079 61.2259512,106.85041 59.9308024,107.385996 C59.0294281,107.762775 57.7773484,108.790353 57.2882067,109.895778 C56.993318,110.356082 56.8832729,110.913016 56.9805705,111.452714 C57.0277191,111.637448 57.1002054,111.814585 57.1959159,111.978959 C56.9960392,112.509089 56.8918401,113.071242 56.8882796,113.638653 C56.8983848,115.622769 58.1063479,117.39876 59.9338788,118.116402 C59.9615661,118.209819 59.9892533,118.303235 60.0138642,118.396651 C60.0700308,118.617583 60.1101308,118.842384 60.1338424,119.069247 C60.1123078,119.508304 60.0846206,119.94736 60.063086,120.383302 C60.0513567,120.443377 60.0359451,120.502655 60.0169406,120.560793 C58.9455476,121.040978 57.9010806,121.580494 56.8882796,122.176893 C57.6358357,123.288545 56.7652251,127.990493 56.7652251,127.990493 C54.8978728,129.10526 53.0305205,131.95134 55.0209273,134.91886 C57.0113341,137.886381 55.891538,141.068759 55.891538,141.068759 L55.5839017,145.907718 L55.5839017,145.907718 L55.5839017,145.907718 L55.5223745,146.873019 L55.5469854,146.873019 L55.5223745,147.240456 L55.5746726,147.240456 L55.5746726,147.635917 C54.6979092,147.947305 53.4212186,148.613673 52.661357,149.815628 C52.3001757,150.412064 51.8614581,150.956674 51.3569791,151.434842 C51.106404,151.639563 50.9739483,151.957828 51.004274,152.282323 C51.0345997,152.606818 51.2236653,152.894297 51.5077209,153.047828 L51.5077209,153.047828 Z M66.5357535,140.193761 C66.4609838,139.357367 66.6142032,138.516232 66.9787498,137.761826 C67.2710042,137.761826 67.5663351,137.761826 67.8585895,137.761826 C67.8893532,137.970456 67.9231932,138.169744 67.9662622,138.350348 C68.218524,139.452659 67.209477,139.972676 66.5357535,140.193761 Z" id="Shape" fill="url(#linearGradient-1)" fill-rule="nonzero"></path>
            <path d="M66.4930576,188.11828 L67,189.792115 L65.3621861,191.605735 L59.9223043,193 L56,192.580645 L56.2534712,191.046595 L56.2534712,191.046595 C56.4054849,190.374205 56.8861351,189.852369 57.4980798,189.695341 C59.1228951,189.275986 62.1840473,188.326165 62.8307238,187 L66.4930576,188.11828 Z" id="Shape" fill="#DB8B8B" fill-rule="nonzero"></path>
            <path d="M66.4930576,188.11828 L67,189.792115 L65.3621861,191.605735 L59.9223043,193 L56,192.580645 L56.2534712,191.046595 L56.2534712,191.046595 C56.4054849,190.374205 56.8861351,189.852369 57.4980798,189.695341 C59.1228951,189.275986 62.1840473,188.326165 62.8307238,187 L66.4930576,188.11828 Z" id="Shape" fill="#000000" fill-rule="nonzero" opacity="0.1"></path>
            <path d="M57.9705933,191.882813 L58.6910357,190.728207 L57.9705933,189.39597 C57.9705933,189.39597 55.8154237,190.439556 54.8548339,190.29523 C53.894244,190.150905 53.4170279,192.171464 55.2150551,192.745066 C57.0130823,193.318668 67.2008768,192.745066 67.2008768,192.745066 C67.2008768,192.745066 68.998904,191.738487 67.2008768,189 L65.6491547,190.439556 C65.6491547,190.439556 63.0106114,192.171464 61.6928791,191.882813 L57.9705933,191.882813 Z" id="Shape" fill="#2E3037" fill-rule="nonzero"></path>
            <path d="M54,193.584229 L57.9199882,194 L63.3566578,192.605735 L65,190.792115 L64.8668438,190.34767 L64.6784765,189.724014 L64.4966047,189.11828 L60.829938,188 C60.6439739,188.3353 60.389218,188.617681 60.086212,188.824373 C58.8943017,189.72043 56.7540596,190.369176 55.5004429,190.695341 L55.341305,190.74552 C55.097629,190.833461 54.8754362,190.981816 54.6917626,191.179211 C54.4714109,191.416628 54.3151273,191.716912 54.2403307,192.046595 L54,193.584229 Z" id="Shape" fill="#DB8B8B" fill-rule="nonzero"></path>
            <path d="M54,192.772326 L57.9199882,193 L63.3566578,192.236506 L65,191.243376 L64.8668438,191 L63.3566578,191.700687 C63.3566578,191.700687 60.5766165,192.619235 59.1833481,192.466143 L55.2666076,192.466143 L56.0233245,191.853778 L55.341305,191.217861 C55.097629,191.266017 54.8754362,191.347256 54.6917626,191.455348 C54.4714109,191.585357 54.3151273,191.749791 54.2403307,191.930324 L54,192.772326 Z" id="Shape" fill="#000000" fill-rule="nonzero" opacity="0.1"></path>
            <path d="M54.9744814,193.882813 L55.6917871,192.728207 L54.9744814,191.39597 C54.9744814,191.39597 52.8194858,192.439556 51.8558949,192.29523 C50.8923039,192.150905 50.4182049,194.171464 52.216087,194.745066 C54.0139691,195.318668 64.2009413,194.745066 64.2009413,194.745066 C64.2009413,194.745066 65.9988234,193.738487 64.2009413,191 L62.6431873,192.424753 C62.6431873,192.424753 60.0079355,194.156661 58.687231,193.86801 L54.9744814,193.882813 Z" id="Shape" fill="#2E3037" fill-rule="nonzero"></path>
            <path d="M59,122.927896 C59,122.927896 64.9871863,123.579064 64.1254672,120.967677 C63.8825009,120.225795 63.818668,119.432411 63.939669,118.658379 C64.0961453,117.699467 64.4587352,116.79041 65,116 L59.3876135,116.916335 C59.7226755,117.505337 59.9781782,118.140173 60.1468233,118.80271 C60.8035238,121.575211 59,122.927896 59,122.927896 Z" id="Shape" fill="#DB8B8B" fill-rule="nonzero"></path>
            <path d="M68,150 C68,150 67.8795234,155.293631 66.6778464,157.880363 L66.4245366,165.38758 C66.4245366,165.38758 66.7859665,172.281317 67.505737,173.637928 C68.2255075,174.99454 65.9426302,186.441938 65.9426302,186.441938 L65.9426302,188.408866 C65.9426302,188.408866 62.0966461,189.888806 61,188.165372 L62.0997352,173.5146 L61.6270962,153.193887 L68,150 Z" id="Shape" fill="#474463" fill-rule="nonzero"></path>
            <path d="M68,150 C68,150 67.8795234,155.293631 66.6778464,157.880363 L66.4245366,165.38758 C66.4245366,165.38758 66.7859665,172.281317 67.505737,173.637928 C68.2255075,174.99454 65.9426302,186.441938 65.9426302,186.441938 L65.9426302,188.408866 C65.9426302,188.408866 62.0966461,189.888806 61,188.165372 L62.0997352,173.5146 L61.6270962,153.193887 L68,150 Z" id="Shape" fill="#000000" fill-rule="nonzero" opacity="0.1"></path>
            <path d="M70.5952858,134 L71.3394077,135.840682 L71.9621707,139.7525 C72.133366,140.857679 71.717048,141.971307 70.844391,142.7425 C69.3529535,144.122273 67.3633056,147 67.3633056,147 L65,140.449773 C65,140.449773 67.3633056,140.104091 66.9896479,138.609091 C66.6159901,137.114091 66.7405427,134.351591 66.7405427,134.351591 L70.5952858,134 Z" id="Shape" fill="#FC6681" fill-rule="nonzero"></path>
            <path d="M70.5952858,134 L71.3394077,135.840682 L71.9621707,139.7525 C72.133366,140.857679 71.717048,141.971307 70.844391,142.7425 C69.3529535,144.122273 67.3633056,147 67.3633056,147 L65,140.449773 C65,140.449773 67.3633056,140.104091 66.9896479,138.609091 C66.6159901,137.114091 66.7405427,134.351591 66.7405427,134.351591 L70.5952858,134 Z" id="Shape" fill="#000000" fill-rule="nonzero" opacity="0.05"></path>
            <path d="M60,189.669131 C61.7680339,191.955812 64.5120226,190.65828 65,190.399356 L64.8019802,189.90769 L60.8097595,189 C60.6072842,189.272158 60.3299091,189.501362 60,189.669131 L60,189.669131 Z" id="Shape" fill="#000000" fill-rule="nonzero" opacity="0.1"></path>
            <path d="M56,155.475886 C56.1162516,157.175182 58.0865673,163.367479 58.0865673,163.367479 L59.4786058,168.46225 C60.4775437,172.063869 60.9922034,175.793435 61.0077616,179.543531 C60.978208,180.724692 61.1322342,181.903035 61.4638256,183.032545 C62.3938385,185.701531 60.5367935,189.343325 60.5367935,189.343325 C62.1613353,192.377114 64.9454122,190.316133 64.9454122,190.316133 L64.9454122,188.373635 C64.9454122,188.373635 67.151212,177.813055 66.569954,175.748956 C65.9886959,173.684857 65.7591735,168.100565 65.7591735,168.100565 L65.7591735,158.026389 C67.6131444,156.084641 68.7386701,153.510919 68.9307558,150.77398 C68.960564,150.377998 68.9814296,149.960189 68.9963337,149.52679 C69.0917196,146.786091 67.3002525,143.577695 66.6116853,142.43028 C66.4447599,142.155899 66.3404315,142 66.3404315,142 L56.0804819,146.252917 L56.0566354,146.252917 L56.0566354,146.667608 L56.0566354,147.58741 L56,155.475886 Z" id="Shape" fill="#474463" fill-rule="nonzero"></path>
            <path d="M59,116.583934 C59.3582028,116.959275 59.6313515,117.363823 59.8116438,117.786024 C61.1271961,118.100407 62.590865,118.067207 63.8664384,117.694049 C64.0337216,117.082984 64.4213533,116.503688 65,116 L59,116.583934 Z" id="Shape" fill="#000000" fill-rule="nonzero" opacity="0.1"></path>
            <circle id="Oval" fill="#DB8B8B" fill-rule="nonzero" cx="61.5" cy="113.5" r="4.5"></circle>
            <path d="M55,146.857321 L55.05192,146.857321 C60.3510005,147.95108 67,142.397399 67,142.397399 C66.8223311,142.094234 66.6682736,141.777675 66.5392104,141.450563 C66.3574905,141.163248 66.2439156,141 66.2439156,141 L55.0876149,145.459922 L55.05841,145.903956 L55,146.857321 Z" id="Shape" fill="#000000" fill-rule="nonzero" opacity="0.1"></path>
            <path d="M56.7178273,122.811205 C56.7178273,122.811205 63.6196579,118.723737 65.8390081,120.406267 L68.919504,124.252933 C68.919504,124.252933 70.8919079,124.851852 70.5214886,128.698518 L72,135.669442 L67.5676317,136.753053 C67.5676317,136.753053 64.9493684,139.154904 67.0547434,142.64654 C67.0547434,142.64654 60.5233321,147.934934 55.3406271,146.85441 L55.7078805,141.204812 C55.7078805,141.204812 56.8191385,138.080554 54.8467347,135.197098 C52.8743308,132.313643 54.7232615,129.547501 56.5721923,128.46389 C56.5785243,128.445366 57.4428361,123.891729 56.7178273,122.811205 Z" id="Shape" fill="#FC6681" fill-rule="nonzero"></path>
            <path d="M56.6768368,147 C56.6768368,147 53.9726263,147.480477 52.6817547,149.411683 C52.3112302,149.992433 51.8580233,150.523246 51.3346143,150.989507 C51.0957896,151.192933 50.9735368,151.490019 51.0048205,151.790935 C51.0361042,152.091852 51.2172517,152.361272 51.4934908,152.517733 C52.5162583,153.091205 54.1844616,153.447688 56.2895753,151.826466 C59.8973959,149.049001 56.6768368,147 56.6768368,147 Z" id="Shape" fill="#DB8B8B" fill-rule="nonzero"></path>
            <path d="M59.7251396,124.09333 C59.7251396,124.09333 61.9168948,123.843682 62.4627234,130.324932 C63.008552,136.806183 63.8863795,138.300871 63.8863795,138.300871 C63.8863795,138.300871 64.4350217,141.664721 63.121094,143.658705 C61.8071663,145.65269 59.2862259,149.887107 59.2862259,149.887107 C59.2862259,149.887107 56.5486422,150.760876 56,147.646675 L59.3959543,140.41968 C59.3959543,140.41968 59.9445965,137.9296 58.6306689,136.185263 C57.3167412,134.440927 56.3291853,122.84829 59.7251396,124.09333 Z" id="Shape" fill="#000000" fill-rule="nonzero" opacity="0.1"></path>
            <path d="M59.7243955,124.094707 C59.7243955,124.094707 61.9157127,123.845041 62.4614323,130.323547 C63.0071519,136.802053 63.887617,138.300048 63.887617,138.300048 C63.887617,138.300048 64.4333365,141.664134 63.1196714,143.658259 C61.8060062,145.652384 59.2855694,149.887099 59.2855694,149.887099 C59.2855694,149.887099 56.5485326,150.760929 56,147.646509 L59.3952759,140.419006 C59.3952759,140.419006 59.9438085,137.925549 58.6301433,136.18109 C57.3164782,134.43663 56.3291195,122.839976 59.7243955,124.094707 Z" id="Shape" fill="#FC6681" fill-rule="nonzero"></path>
            <path d="M58.0273427,129 C58.0273427,129 57.7396732,132.757198 59.0304979,134.817899 C60.3213227,136.878599 60.3250107,139.543191 59.0304979,141" id="Shape" fill="#000000" fill-rule="nonzero" opacity="0.1"></path>
            <path d="M58,124 C58,124 58.8764045,123.060423 61.3904494,122.942598 C63.9044944,122.824773 65,122 65,122" id="Shape" fill="#000000" fill-rule="nonzero" opacity="0.1"></path>
            <path d="M64.3149241,108.135617 C65.059761,108.226153 65.9150611,108.479029 66.1833286,109.17522 C66.2543319,109.438469 66.3112208,109.705245 66.3537574,109.974434 C66.6314932,111.03589 67.8402751,111.535399 68.5851121,112.343979 C69.2447346,113.058901 69.5319387,114.029821 69.7465527,114.972644 C70.358288,117.681618 70.50446,120.473154 70.1789368,123.230149 C69.9390741,125.246916 69.4498804,127.232463 69.3110125,129.255474 C69.1721446,131.278485 69.4246317,133.410763 70.5450431,135.112215 C71.0247686,135.842746 71.6591424,136.485864 72,137.297566 C71.2961922,137.862635 70.3241169,137.943805 69.4183195,137.975025 C68.3662899,138.008325 67.3142604,138.008325 66.2622308,137.975025 C65.7052716,137.998076 65.1512051,137.884387 64.6494695,137.6441 C64.2945846,137.420697 64.0034029,137.111172 63.8036377,136.744984 C63.2008248,135.730357 63.0461765,134.512804 63.0714252,133.332715 C63.0966739,132.152625 63.2860392,130.985023 63.3081318,129.808056 C63.3081318,129.164938 63.2702588,128.484357 62.8978403,127.959873 C62.5915991,127.609252 62.2452703,127.294958 61.8657993,127.023294 C60.5528664,125.871302 60.1015457,124.019997 60.0573605,122.284204 C60.0131753,120.548411 60.3003793,118.806374 60.1520432,117.073703 C60.0952336,116.396244 59.8364343,115.58142 59.1641874,115.450299 C58.9520373,115.438768 58.7410488,115.411636 58.5329697,115.369129 C57.9901224,115.163082 58.0437759,114.407575 57.9017519,113.854993 C57.7281671,113.230607 57.1947881,112.756074 57.0432958,112.128566 C56.6898139,110.658137 58.580311,108.903612 59.8206539,108.38225 C61.0609967,107.860887 62.9830547,107.973277 64.3149241,108.135617 Z" id="Shape" fill="#000000" fill-rule="nonzero" opacity="0.1"></path>
            <path d="M64.3230005,108.130544 C65.0670547,108.224218 65.9183031,108.477137 66.1894415,109.170323 C66.2606893,109.434595 66.3175214,109.702473 66.3596912,109.972796 C66.6371351,111.034432 67.8446467,111.534026 68.5887009,112.339621 C69.2476302,113.054664 69.5345324,114.025749 69.7489209,114.968732 C70.3600133,117.678166 70.5060317,120.470177 70.1808506,123.22764 C69.94124,125.244749 69.4525603,127.230634 69.3138384,129.253988 C69.1751164,131.277343 69.4273382,133.409983 70.5465722,135.111724 C71.0257935,135.84238 71.6595006,136.485607 72,137.297446 C71.2969319,137.862612 70.3258781,137.943796 69.4210326,137.97502 C68.3701087,138.008327 67.3139301,138.008327 66.2524969,137.97502 C65.696123,137.998076 65.1426388,137.884367 64.6414305,137.64404 C64.2877643,137.420934 63.9970445,137.112597 63.7964876,136.747893 C63.1911554,135.729971 63.0398224,134.512212 63.0650446,133.331922 C63.0902667,132.151632 63.2794331,130.983832 63.3015025,129.806664 C63.3015025,129.16656 63.2636692,128.482741 62.8916421,127.958167 C62.5849044,127.608275 62.239036,127.294015 61.8606857,127.021429 C60.5491326,125.869241 60.0951335,124.020745 60.0509947,122.281534 C60.0068559,120.542324 60.2969109,118.803114 60.1487306,117.070148 C60.0919807,116.392574 59.8334534,115.577612 59.161913,115.446469 C58.9499859,115.434935 58.7392191,115.407799 58.5313586,115.365285 C57.9890819,115.159202 58.042679,114.403567 57.9008043,113.850891 C57.7274018,113.226399 57.1945834,112.751785 57.0432503,112.124171 C56.6901399,110.656614 58.5786502,108.898669 59.8176896,108.377218 C61.0567289,107.855768 62.9925308,107.980666 64.3230005,108.130544 Z" id="Shape" fill="#472727" fill-rule="nonzero"></path>
            <ellipse id="Oval" fill="#00A7B5" fill-rule="nonzero" opacity="0.1" cx="299.5" cy="215" rx="7.5" ry="1"></ellipse>
            <ellipse id="Oval" fill="#00A7B5" fill-rule="nonzero" opacity="0.1" cx="269.5" cy="219" rx="7.5" ry="1"></ellipse>
            <ellipse id="Oval" fill="#00A7B5" fill-rule="nonzero" opacity="0.1" cx="236.5" cy="214" rx="7.5" ry="1"></ellipse>
            <ellipse id="Oval" fill="#00A7B5" fill-rule="nonzero" opacity="0.1" cx="281.5" cy="227" rx="5.5" ry="1"></ellipse>
            <ellipse id="Oval" fill="#00A7B5" fill-rule="nonzero" opacity="0.1" cx="251.5" cy="227" rx="5.5" ry="1"></ellipse>
            <path d="M269.79622,218 C269.79622,218 280.267737,184.092519 268.156741,170.50986 C259.097603,160.350522 248.815855,161.564357 244.20229,162.82736 C241.790003,163.462758 239.78156,165.111915 238.708322,167.338524 C237.099951,170.767992 237.389271,176.339341 248.756747,182.838736 C267.786535,193.720228 268.978036,208.651934 268.978036,208.651934 L269.79622,218 Z" id="Shape" fill="#00A7B5" fill-rule="nonzero"></path>
            <path d="M246,167 C246,167 276.914295,176.645537 269.98872,218" id="Shape" stroke="#565987"></path>
            <path d="M264,171 C264,171 261.312939,173.8 262.168003,178" id="Shape" stroke="#565987"></path>
            <path d="M249,174 C249,174 251.708423,170.744248 255,172.540657" id="Shape" stroke="#565987"></path>
            <path d="M261,187.198783 C261,187.198783 265.76748,184.028008 267,188" id="Shape" stroke="#565987"></path>
            <path d="M273,191.012408 C273,191.012408 269.074933,190.81444 269,192" id="Shape" stroke="#565987"></path>
            <path d="M271,220 C271,220 258.407854,194.448362 254.948368,195.009096 C253.306469,195.273533 252.549407,196.885644 252.204417,198.513685 C251.780001,200.607523 252.020048,202.781223 252.891203,204.732737 C254.673653,208.81399 259.465185,216.578247 271,220 Z" id="Shape" fill="#00A7B5" fill-rule="nonzero"></path>
            <path d="M255,200 C255,200 267.569866,219.157088 270,220" id="Shape" stroke="#565987"></path>
            <path d="M254,201.844532 L256,201.844532" id="Shape" stroke="#565987"></path>
            <path d="M257,208.844532 L262,209.04664" id="Shape" stroke="#565987"></path>
            <path d="M261,203 L260,205" id="Shape" stroke="#565987"></path>
            <path d="M265.93474,210 L265.84462,212" id="Shape" stroke="#565987"></path>
            <path d="M270,220 C270,220 282.592146,194.448362 286.051632,195.009096 C287.696725,195.273533 288.453787,196.885644 288.795583,198.513685 C289.219999,200.607523 288.979952,202.781223 288.108797,204.732737 C286.310375,208.81399 281.518843,216.578247 270,220 Z" id="Shape" fill="#00A7B5" fill-rule="nonzero"></path>
            <path d="M285,200 C285,200 272.427588,219.157088 270,220" id="Shape" stroke="#565987"></path>
            <path d="M287,201.844532 L285,201.844532" id="Shape" stroke="#565987"></path>
            <path d="M283,208.844532 L278,209.04664" id="Shape" stroke="#565987"></path>
            <path d="M280,203 L281,205" id="Shape" stroke="#565987"></path>
            <path d="M274.84462,210 L274.93474,212" id="Shape" stroke="#565987"></path>
            <path d="M248.680805,224.738076 C248.368087,224.436134 248.140598,224.028368 248.028724,223.569244 C247.923502,223.094527 248.114436,222.597589 248.485763,222.379725 C248.904958,222.190091 249.359087,222.53488 249.69095,222.883116 C250.022813,223.231352 250.418719,223.627858 250.855381,223.555452 C250.391047,223.054589 250.18132,222.302848 250.302276,221.572921 C250.322587,221.425662 250.375866,221.287547 250.456564,221.172967 C250.68945,220.876449 251.111556,221.00402 251.39102,221.235028 C252.264344,221.972875 252.52343,223.400298 252.529252,224.682909 C252.57298,224.210817 252.57298,223.734475 252.529252,223.262382 C252.495035,222.781377 252.663976,222.31148 252.980469,222.007354 C253.191019,221.872141 253.428089,221.805514 253.667484,221.814272 C254.067292,221.746974 254.472449,221.883542 254.782427,222.190091 C255.120112,222.617629 255.03278,223.338236 254.738761,223.810596 C254.407601,224.252811 254.013478,224.62275 253.574329,224.903574 C253.244831,225.137689 252.963424,225.455677 252.750494,225.834502 C252.726634,225.88777 252.706199,225.943093 252.689361,226 L250.194566,226 C249.644372,225.661879 249.135195,225.237411 248.680805,224.738076 L248.680805,224.738076 Z" id="Shape" fill="#00A7B5" fill-rule="nonzero"></path>
            <path d="M296.680665,213.720836 C296.367855,213.418894 296.140299,213.011129 296.028391,212.552004 C295.924223,212.079233 296.113653,211.584635 296.482653,211.365933 C296.901972,211.172852 297.356234,211.51764 297.691107,211.865876 C298.025979,212.214112 298.419091,212.610618 298.855881,212.555452 C298.391411,212.054589 298.181621,211.302848 298.302613,210.572921 C298.32293,210.425662 298.376225,210.287547 298.456946,210.172967 C298.689901,209.876449 299.112132,210.00402 299.391677,210.235028 C300.265258,210.972875 300.524421,212.400298 300.530245,213.682909 C300.573986,213.210817 300.573986,212.734475 300.530245,212.262382 C300.496017,211.781377 300.665008,211.31148 300.981595,211.007354 C301.192207,210.872141 301.429347,210.805514 301.668812,210.814272 C302.067883,210.746206 302.472528,210.882919 302.781171,211.190091 C303.121868,211.617629 303.031598,212.338236 302.737492,212.810596 C302.406444,213.253072 302.012163,213.62305 301.572718,213.903574 C301.243123,214.137689 300.961633,214.455677 300.74864,214.834502 C300.724773,214.88777 300.704332,214.943093 300.687489,215 L298.19196,215 C297.64177,214.656282 297.133393,214.22599 296.680665,213.720836 L296.680665,213.720836 Z" id="Shape" fill="#00A7B5" fill-rule="nonzero"></path>
            <path d="M280.682298,224.738076 C280.369431,224.436324 280.141434,224.028619 280.028664,223.569244 C279.923661,223.094527 280.114199,222.597589 280.484755,222.379725 C280.903081,222.190091 281.356267,222.53488 281.690346,222.883116 C282.024425,223.231352 282.416606,223.627858 282.852361,223.555452 C282.386991,223.056132 282.177318,222.303022 282.300404,221.572921 C282.319388,221.425202 282.372707,221.286695 282.454371,221.172967 C282.686774,220.876449 283.1051,221.00402 283.383983,221.235028 C284.255495,221.972875 284.516948,223.400298 284.519853,224.682909 C284.569288,224.211571 284.575133,223.735229 284.537284,223.262382 C284.501927,222.781891 284.669487,222.311832 284.98466,222.007354 C285.194922,221.872604 285.431393,221.806006 285.670249,221.814272 C286.069253,221.74653 286.473719,221.883149 286.782878,222.190091 C287.119863,222.617629 287.032712,223.338236 286.739303,223.810596 C286.408419,224.252294 286.015195,224.622156 285.577287,224.903574 C285.247263,225.135799 284.966117,225.454153 284.755162,225.834502 C284.730147,225.887068 284.709707,225.94252 284.694156,226 L282.201633,226 C281.649409,225.662894 281.138297,225.238376 280.682298,224.738076 L280.682298,224.738076 Z" id="Shape" fill="#00A7B5" fill-rule="nonzero"></path>
            <path d="M236.248553,204 C236.248553,204 235.246154,205.281465 236.709284,207.218917 C238.172413,209.156369 239.380274,210.791762 238.888413,212 C238.888413,212 236.681266,208.402746 234.885041,208.338673 C233.088815,208.2746 234.271772,206.154081 236.248553,204 Z" id="Shape" fill="#00A7B5" fill-rule="nonzero"></path>
            <path d="M236.272572,204 C236.183102,204.123549 236.113051,204.259276 236.064708,204.402746 C234.291565,206.419527 233.346728,208.305111 235.050584,208.350877 C236.641058,208.396644 238.546478,211.148741 239,211.841342 C238.986921,211.895628 238.969007,211.948713 238.946459,212 C238.946459,212 236.713496,208.402746 234.89626,208.338673 C233.079025,208.2746 234.272668,206.154081 236.272572,204 Z" id="Shape" fill="#000000" fill-rule="nonzero" opacity="0.1"></path>
            <path d="M233.84462,206.260774 C233.84462,206.669003 233.897449,207 233.959601,207 C234.021753,207 234.074583,206.669003 234.074583,206.260774 C234.074583,205.852544 234.01243,206.045626 233.947171,206.045626 C233.881911,206.045626 233.84462,205.852544 233.84462,206.260774 Z" id="Shape" fill="#FFD037" fill-rule="nonzero"></path>
            <path d="M233.237737,206.50774 C233.62832,206.855451 233.967826,207.069045 233.997871,206.979633 C234.027916,206.890222 233.736481,206.532576 233.345898,206.179898 C232.955316,205.82722 233.108544,206.085519 233.0785,206.179898 C233.048455,206.274277 232.847155,206.155062 233.237737,206.50774 Z" id="Shape" fill="#FFD037" fill-rule="nonzero"></path>
            <path d="M240.751622,204 C240.751622,204 241.750217,205.281465 240.288099,207.218917 C238.825982,209.156369 237.622069,210.791762 238.110478,212 C238.110478,212 240.316097,208.402746 242.11419,208.338673 C243.912283,208.2746 242.727035,206.154081 240.751622,204 Z" id="Shape" fill="#00A7B5" fill-rule="nonzero"></path>
            <path d="M240.728096,204 C240.815763,204.124086 240.884639,204.259713 240.932625,204.402746 C242.707303,206.419527 243.651281,208.305111 241.945827,208.350877 C240.372531,208.396644 238.456256,211.148741 238,211.841342 C238,211.896262 238.034613,211.948131 238.053492,212 C238.053492,212 240.284426,208.402746 242.103157,208.338673 C243.921888,208.2746 242.726182,206.154081 240.728096,204 Z" id="Shape" fill="#000000" fill-rule="nonzero" opacity="0.1"></path>
            <path d="M243.074583,206.260774 C243.074583,206.669003 243.024861,207 242.959601,207 C242.894341,207 242.84462,206.669003 242.84462,206.260774 C242.84462,205.852544 242.909879,206.045626 242.972032,206.045626 C243.034184,206.045626 243.074583,205.852544 243.074583,206.260774 Z" id="Shape" fill="#FFD037" fill-rule="nonzero"></path>
            <path d="M243.762174,206.50774 C243.371445,206.855451 243.028807,207.069045 243.001756,206.979633 C242.974706,206.890222 243.263244,206.532576 243.653972,206.179898 C244.044701,205.82722 243.891415,206.085519 243.921471,206.179898 C243.951527,206.274277 244.152903,206.155062 243.762174,206.50774 Z" id="Shape" fill="#FFD037" fill-rule="nonzero"></path>
            <path d="M242,211.715531 C242,211.715531 239.040801,211.616654 238.153042,210.93511 C237.265282,210.253566 233.60574,209.441363 233.385444,210.536071 C233.165148,211.630779 228.94007,215.970768 232.280676,215.999018 C235.621283,216.027269 240.033777,215.44107 240.924824,214.858403 C241.815872,214.275736 242,211.715531 242,211.715531 Z" id="Shape" fill="#A8A8A8" fill-rule="nonzero"></path>
            <path d="M232.217467,215.64632 C235.558326,215.672695 239.97444,215.125417 240.865555,214.581436 C241.539646,214.16933 241.81257,212.685746 241.901353,212 L242,212 C242,212 241.81257,214.390219 240.924743,214.9342 C240.036917,215.478181 235.617514,216.025458 232.279944,215.999083 C231.316488,215.999083 230.981087,215.64632 231.000816,215.138605 C231.135634,215.448509 231.50063,215.639726 232.217467,215.64632 Z" id="Shape" fill="#000000" fill-rule="nonzero" opacity="0.2"></path>
            <ellipse id="Oval" fill="#00A7B5" fill-rule="nonzero" opacity="0.1" cx="52" cy="220" rx="11" ry="1"></ellipse>
            <ellipse id="Oval" fill="#00A7B5" fill-rule="nonzero" opacity="0.1" cx="78" cy="235" rx="11" ry="1"></ellipse>
            <ellipse id="Oval" fill="#00A7B5" fill-rule="nonzero" opacity="0.1" cx="193" cy="197" rx="7" ry="1"></ellipse>
            <ellipse id="Oval" fill="#00A7B5" fill-rule="nonzero" opacity="0.1" cx="160" cy="220" rx="7" ry="1"></ellipse>
            <ellipse id="Oval" fill="#00A7B5" fill-rule="nonzero" opacity="0.1" cx="145" cy="234" rx="7" ry="1"></ellipse>
        </g>
    </g>
</svg>